<?xml version="1.0" encoding="UTF-8"?>
<!DOCTYPE X3D PUBLIC "ISO//Web3D//DTD X3D 3.0//EN" "http://www.web3d.org/specifications/x3d-3.0.dtd">
<X3D profile="Interchange" version="3.0"
     xmlns:xsd="http://www.w3.org/2001/XMLSchema-instance"
     xsd:noNamespaceSchemaLocation="http://www.web3d.org/specifications/x3d-3.0.xsd">
<head>
	<meta name="generator" content="tovrmlx3d, http://castle-engine.sourceforge.net/view3dscene.php#section_converting" />
	<meta name="source" content="chooz.wrl" />
</head>
<Scene>
	<Viewpoint
		position="0 0 5542.56005859375" />
	<Shape>
		<Appearance>
			<Material
				diffuseColor="0.800000011920929 0.100000001490116 0.100000001490116"
				transparency="0.699999988079071" />
		</Appearance>
		<IndexedFaceSet
			coordIndex="0 3 2 1 -1 4 7 3 0 -1 7 6 2 3 -1 6 5 1 2 -1 5 4 0 1 -1 4 5 6 7 -1"
			solid="false">
			<Coordinate
				point="-1600 -1600 -1600 1600 -1600 -1600 1600 1600 -1600 -1600 1600 -1600 -1600 -1600 1600 1600 -1600 1600 1600 1600 1600 -1600 1600 1600" />
		</IndexedFaceSet>
	</Shape>
	<Shape>
		<Appearance>
			<Material
				diffuseColor="0 0.200000002980232 1"
				transparency="0.699999988079071" />
		</Appearance>
		<IndexedFaceSet
			coordIndex="0 24 25 1 -1 1 25 26 2 -1 2 26 27 3 -1 3 27 28 4 -1 4 28 29 5 -1 5 29 30 6 -1 6 30 31 7 -1 7 31 32 8 -1 8 32 33 9 -1 9 33 34 10 -1 10 34 35 11 -1 11 35 36 12 -1 12 36 37 13 -1 13 37 38 14 -1 14 38 39 15 -1 15 39 40 16 -1 16 40 41 17 -1 17 41 42 18 -1 18 42 43 19 -1 19 43 44 20 -1 20 44 45 21 -1 21 45 46 22 -1 22 46 47 23 -1 23 47 24 0 -1 48 0 1 -1 48 1 2 -1 48 2 3 -1 48 3 4 -1 48 4 5 -1 48 5 6 -1 48 6 7 -1 48 7 8 -1 48 8 9 -1 48 9 10 -1 48 10 11 -1 48 11 12 -1 48 12 13 -1 48 13 14 -1 48 14 15 -1 48 15 16 -1 48 16 17 -1 48 17 18 -1 48 18 19 -1 48 19 20 -1 48 20 21 -1 48 21 22 -1 48 22 23 -1 48 23 0 -1 24 49 25 -1 25 49 26 -1 26 49 27 -1 27 49 28 -1 28 49 29 -1 29 49 30 -1 30 49 31 -1 31 49 32 -1 32 49 33 -1 33 49 34 -1 34 49 35 -1 35 49 36 -1 36 49 37 -1 37 49 38 -1 38 49 39 -1 39 49 40 -1 40 49 41 -1 41 49 42 -1 42 49 43 -1 43 49 44 -1 44 49 45 -1 45 49 46 -1 46 49 47 -1 47 49 24 -1"
			solid="false">
			<Coordinate
				point="1250 0 1250 1207.41003417969 323.523986816406 1250 1082.53002929688 625 1250 883.882995605469 883.882995605469 1250 625 1082.53002929688 1250 323.523986816406 1207.41003417969 1250 7.65403975551589E-14 1250 1250 -323.523986816406 1207.41003417969 1250 -625 1082.53002929688 1250 -883.882995605469 883.882995605469 1250 -1082.53002929688 625 1250 -1207.41003417969 323.523986816406 1250 -1250 1.53080998398225E-13 1250 -1207.41003417969 -323.523986816406 1250 -1082.53002929688 -625 1250 -883.882995605469 -883.882995605469 1250 -625 -1082.53002929688 1250 -323.523986816406 -1207.41003417969 1250 -2.2962100970636E-13 -1250 1250 323.523986816406 -1207.41003417969 1250 625 -1082.53002929688 1250 883.882995605469 -883.882995605469 1250 1082.53002929688 -625 1250 1207.41003417969 -323.523986816406 1250 1250 0 -1250 1207.41003417969 323.523986816406 -1250 1082.53002929688 625 -1250 883.882995605469 883.882995605469 -1250 625 1082.53002929688 -1250 323.523986816406 1207.41003417969 -1250 7.65403975551589E-14 1250 -1250 -323.523986816406 1207.41003417969 -1250 -625 1082.53002929688 -1250 -883.882995605469 883.882995605469 -1250 -1082.53002929688 625 -1250 -1207.41003417969 323.523986816406 -1250 -1250 1.53080998398225E-13 -1250 -1207.41003417969 -323.523986816406 -1250 -1082.53002929688 -625 -1250 -883.882995605469 -883.882995605469 -1250 -625 -1082.53002929688 -1250 -323.523986816406 -1207.41003417969 -1250 -2.2962100970636E-13 -1250 -1250 323.523986816406 -1207.41003417969 -1250 625 -1082.53002929688 -1250 883.882995605469 -883.882995605469 -1250 1082.53002929688 -625 -1250 1207.41003417969 -323.523986816406 -1250 0 0 1250 0 0 -1250" />
		</IndexedFaceSet>
	</Shape>
	<Shape>
		<Appearance>
			<Material
				diffuseColor="1 1 1"
				transparency="0.699999988079071" />
		</Appearance>
		<IndexedFaceSet
			coordIndex="0 24 25 1 -1 1 25 26 2 -1 2 26 27 3 -1 3 27 28 4 -1 4 28 29 5 -1 5 29 30 6 -1 6 30 31 7 -1 7 31 32 8 -1 8 32 33 9 -1 9 33 34 10 -1 10 34 35 11 -1 11 35 36 12 -1 12 36 37 13 -1 13 37 38 14 -1 14 38 39 15 -1 15 39 40 16 -1 16 40 41 17 -1 17 41 42 18 -1 18 42 43 19 -1 19 43 44 20 -1 20 44 45 21 -1 21 45 46 22 -1 22 46 47 23 -1 23 47 24 0 -1 48 0 1 -1 48 1 2 -1 48 2 3 -1 48 3 4 -1 48 4 5 -1 48 5 6 -1 48 6 7 -1 48 7 8 -1 48 8 9 -1 48 9 10 -1 48 10 11 -1 48 11 12 -1 48 12 13 -1 48 13 14 -1 48 14 15 -1 48 15 16 -1 48 16 17 -1 48 17 18 -1 48 18 19 -1 48 19 20 -1 48 20 21 -1 48 21 22 -1 48 22 23 -1 48 23 0 -1 24 49 25 -1 25 49 26 -1 26 49 27 -1 27 49 28 -1 28 49 29 -1 29 49 30 -1 30 49 31 -1 31 49 32 -1 32 49 33 -1 33 49 34 -1 34 49 35 -1 35 49 36 -1 36 49 37 -1 37 49 38 -1 38 49 39 -1 39 49 40 -1 40 49 41 -1 41 49 42 -1 42 49 43 -1 43 49 44 -1 44 49 45 -1 45 49 46 -1 46 49 47 -1 47 49 24 -1"
			solid="false">
			<Coordinate
				point="750 0 750 724.443969726563 194.113998413086 750 649.518981933594 375 750 530.330017089844 530.330017089844 750 375 649.518981933594 750 194.113998413086 724.443969726563 750 4.59243001970939E-14 750 750 -194.113998413086 724.443969726563 750 -375 649.518981933594 750 -530.330017089844 530.330017089844 750 -649.518981933594 375 750 -724.443969726563 194.113998413086 750 -750 9.18484987502341E-14 750 -724.443969726563 -194.113998413086 750 -649.518981933594 -375 750 -530.330017089844 -530.330017089844 750 -375 -649.518981933594 750 -194.113998413086 -724.443969726563 750 -1.37772998847104E-13 -750 750 194.113998413086 -724.443969726563 750 375 -649.518981933594 750 530.330017089844 -530.330017089844 750 649.518981933594 -375 750 724.443969726563 -194.113998413086 750 750 0 -750 724.443969726563 194.113998413086 -750 649.518981933594 375 -750 530.330017089844 530.330017089844 -750 375 649.518981933594 -750 194.113998413086 724.443969726563 -750 4.59243001970939E-14 750 -750 -194.113998413086 724.443969726563 -750 -375 649.518981933594 -750 -530.330017089844 530.330017089844 -750 -649.518981933594 375 -750 -724.443969726563 194.113998413086 -750 -750 9.18484987502341E-14 -750 -724.443969726563 -194.113998413086 -750 -649.518981933594 -375 -750 -530.330017089844 -530.330017089844 -750 -375 -649.518981933594 -750 -194.113998413086 -724.443969726563 -750 -1.37772998847104E-13 -750 -750 194.113998413086 -724.443969726563 -750 375 -649.518981933594 -750 530.330017089844 -530.330017089844 -750 649.518981933594 -375 -750 724.443969726563 -194.113998413086 -750 0 0 750 0 0 -750" />
		</IndexedFaceSet>
	</Shape>
</Scene>
</X3D>
