#VRML V2.0 utf8
# Generated by VRML 2.0 driver of GEANT4


#---------- CAMERA
Viewpoint {
	position 0 0 7274.61
}

#---------- SOLID: cave.0
	Shape {
		appearance Appearance {
			material Material {
				diffuseColor 0.8 0.1 0.1
				transparency 0.7
			}
		}
		geometry IndexedFaceSet {
			coord Coordinate {
				point [
					-2100 -2100 -2100,
					2100 -2100 -2100,
					2100 2100 -2100,
					-2100 2100 -2100,
					-2100 -2100 2100,
					2100 -2100 2100,
					2100 2100 2100,
					-2100 2100 2100,
				]
			}
			coordIndex [
				0, 3, 2, 1, -1,
				4, 7, 3, 0, -1,
				7, 6, 2, 3, -1,
				6, 5, 1, 2, -1,
				5, 4, 0, 1, -1,
				4, 5, 6, 7, -1,
			]
			solid FALSE
		}
	}
#---------- SOLID: water_shield.0
	Shape {
		appearance Appearance {
			material Material {
				diffuseColor 1 1 1
				transparency 0.7
			}
		}
		geometry IndexedFaceSet {
			coord Coordinate {
				point [
					-1010 -1500 -1500,
					1010 -1500 -1500,
					1010 1500 -1500,
					-1010 1500 -1500,
					-1010 -1500 1500,
					1010 -1500 1500,
					1010 1500 1500,
					-1010 1500 1500,
				]
			}
			coordIndex [
				0, 3, 2, 1, -1,
				4, 7, 3, 0, -1,
				7, 6, 2, 3, -1,
				6, 5, 1, 2, -1,
				5, 4, 0, 1, -1,
				4, 5, 6, 7, -1,
			]
			solid FALSE
		}
	}
#---------- SOLID: detector_space.0
	Shape {
		appearance Appearance {
			material Material {
				diffuseColor 0.8 0.8 0.8
				transparency 0.7
			}
		}
		geometry IndexedFaceSet {
			coord Coordinate {
				point [
					-540 -1010 -1100,
					540 -1010 -1100,
					540 1010 -1100,
					-540 1010 -1100,
					-540 -1010 1100,
					540 -1010 1100,
					540 1010 1100,
					-540 1010 1100,
				]
			}
			coordIndex [
				0, 3, 2, 1, -1,
				4, 7, 3, 0, -1,
				7, 6, 2, 3, -1,
				6, 5, 1, 2, -1,
				5, 4, 0, 1, -1,
				4, 5, 6, 7, -1,
			]
			solid FALSE
		}
	}
#---------- SOLID: capture_plane.0
	Shape {
		appearance Appearance {
			material Material {
				diffuseColor 1 1 1
				transparency 0.7
			}
		}
		geometry IndexedFaceSet {
			coord Coordinate {
				point [
					-535 -1005 -1025,
					-465 -1005 -1025,
					-465 1005 -1025,
					-535 1005 -1025,
					-535 -1005 1025,
					-465 -1005 1025,
					-465 1005 1025,
					-535 1005 1025,
				]
			}
			coordIndex [
				0, 3, 2, 1, -1,
				4, 7, 3, 0, -1,
				7, 6, 2, 3, -1,
				6, 5, 1, 2, -1,
				5, 4, 0, 1, -1,
				4, 5, 6, 7, -1,
			]
			solid FALSE
		}
	}
#---------- SOLID: capture_bar_1.0
	Shape {
		appearance Appearance {
			material Material {
				diffuseColor 1 1 1
				transparency 0.7
			}
		}
		geometry IndexedFaceSet {
			coord Coordinate {
				point [
					-530 -1000 -980,
					-470 -1000 -980,
					-470 1000 -980,
					-530 1000 -980,
					-530 -1000 -930,
					-470 -1000 -930,
					-470 1000 -930,
					-530 1000 -930,
				]
			}
			coordIndex [
				0, 3, 2, 1, -1,
				4, 7, 3, 0, -1,
				7, 6, 2, 3, -1,
				6, 5, 1, 2, -1,
				5, 4, 0, 1, -1,
				4, 5, 6, 7, -1,
			]
			solid FALSE
		}
	}
#---------- SOLID: capture_bar_10.0
	Shape {
		appearance Appearance {
			material Material {
				diffuseColor 1 1 1
				transparency 0.7
			}
		}
		geometry IndexedFaceSet {
			coord Coordinate {
				point [
					-530 -1000 -521,
					-470 -1000 -521,
					-470 1000 -521,
					-530 1000 -521,
					-530 -1000 -471,
					-470 -1000 -471,
					-470 1000 -471,
					-530 1000 -471,
				]
			}
			coordIndex [
				0, 3, 2, 1, -1,
				4, 7, 3, 0, -1,
				7, 6, 2, 3, -1,
				6, 5, 1, 2, -1,
				5, 4, 0, 1, -1,
				4, 5, 6, 7, -1,
			]
			solid FALSE
		}
	}
#---------- SOLID: capture_bar_11.0
	Shape {
		appearance Appearance {
			material Material {
				diffuseColor 1 1 1
				transparency 0.7
			}
		}
		geometry IndexedFaceSet {
			coord Coordinate {
				point [
					-530 -1000 -470,
					-470 -1000 -470,
					-470 1000 -470,
					-530 1000 -470,
					-530 -1000 -420,
					-470 -1000 -420,
					-470 1000 -420,
					-530 1000 -420,
				]
			}
			coordIndex [
				0, 3, 2, 1, -1,
				4, 7, 3, 0, -1,
				7, 6, 2, 3, -1,
				6, 5, 1, 2, -1,
				5, 4, 0, 1, -1,
				4, 5, 6, 7, -1,
			]
			solid FALSE
		}
	}
#---------- SOLID: capture_bar_12.0
	Shape {
		appearance Appearance {
			material Material {
				diffuseColor 1 1 1
				transparency 0.7
			}
		}
		geometry IndexedFaceSet {
			coord Coordinate {
				point [
					-530 -1000 -419,
					-470 -1000 -419,
					-470 1000 -419,
					-530 1000 -419,
					-530 -1000 -369,
					-470 -1000 -369,
					-470 1000 -369,
					-530 1000 -369,
				]
			}
			coordIndex [
				0, 3, 2, 1, -1,
				4, 7, 3, 0, -1,
				7, 6, 2, 3, -1,
				6, 5, 1, 2, -1,
				5, 4, 0, 1, -1,
				4, 5, 6, 7, -1,
			]
			solid FALSE
		}
	}
#---------- SOLID: capture_bar_13.0
	Shape {
		appearance Appearance {
			material Material {
				diffuseColor 1 1 1
				transparency 0.7
			}
		}
		geometry IndexedFaceSet {
			coord Coordinate {
				point [
					-530 -1000 -368,
					-470 -1000 -368,
					-470 1000 -368,
					-530 1000 -368,
					-530 -1000 -318,
					-470 -1000 -318,
					-470 1000 -318,
					-530 1000 -318,
				]
			}
			coordIndex [
				0, 3, 2, 1, -1,
				4, 7, 3, 0, -1,
				7, 6, 2, 3, -1,
				6, 5, 1, 2, -1,
				5, 4, 0, 1, -1,
				4, 5, 6, 7, -1,
			]
			solid FALSE
		}
	}
#---------- SOLID: capture_bar_14.0
	Shape {
		appearance Appearance {
			material Material {
				diffuseColor 1 1 1
				transparency 0.7
			}
		}
		geometry IndexedFaceSet {
			coord Coordinate {
				point [
					-530 -1000 -317,
					-470 -1000 -317,
					-470 1000 -317,
					-530 1000 -317,
					-530 -1000 -267,
					-470 -1000 -267,
					-470 1000 -267,
					-530 1000 -267,
				]
			}
			coordIndex [
				0, 3, 2, 1, -1,
				4, 7, 3, 0, -1,
				7, 6, 2, 3, -1,
				6, 5, 1, 2, -1,
				5, 4, 0, 1, -1,
				4, 5, 6, 7, -1,
			]
			solid FALSE
		}
	}
#---------- SOLID: capture_bar_15.0
	Shape {
		appearance Appearance {
			material Material {
				diffuseColor 1 1 1
				transparency 0.7
			}
		}
		geometry IndexedFaceSet {
			coord Coordinate {
				point [
					-530 -1000 -266,
					-470 -1000 -266,
					-470 1000 -266,
					-530 1000 -266,
					-530 -1000 -216,
					-470 -1000 -216,
					-470 1000 -216,
					-530 1000 -216,
				]
			}
			coordIndex [
				0, 3, 2, 1, -1,
				4, 7, 3, 0, -1,
				7, 6, 2, 3, -1,
				6, 5, 1, 2, -1,
				5, 4, 0, 1, -1,
				4, 5, 6, 7, -1,
			]
			solid FALSE
		}
	}
#---------- SOLID: capture_bar_16.0
	Shape {
		appearance Appearance {
			material Material {
				diffuseColor 1 1 1
				transparency 0.7
			}
		}
		geometry IndexedFaceSet {
			coord Coordinate {
				point [
					-530 -1000 -215,
					-470 -1000 -215,
					-470 1000 -215,
					-530 1000 -215,
					-530 -1000 -165,
					-470 -1000 -165,
					-470 1000 -165,
					-530 1000 -165,
				]
			}
			coordIndex [
				0, 3, 2, 1, -1,
				4, 7, 3, 0, -1,
				7, 6, 2, 3, -1,
				6, 5, 1, 2, -1,
				5, 4, 0, 1, -1,
				4, 5, 6, 7, -1,
			]
			solid FALSE
		}
	}
#---------- SOLID: capture_bar_17.0
	Shape {
		appearance Appearance {
			material Material {
				diffuseColor 1 1 1
				transparency 0.7
			}
		}
		geometry IndexedFaceSet {
			coord Coordinate {
				point [
					-530 -1000 -164,
					-470 -1000 -164,
					-470 1000 -164,
					-530 1000 -164,
					-530 -1000 -114,
					-470 -1000 -114,
					-470 1000 -114,
					-530 1000 -114,
				]
			}
			coordIndex [
				0, 3, 2, 1, -1,
				4, 7, 3, 0, -1,
				7, 6, 2, 3, -1,
				6, 5, 1, 2, -1,
				5, 4, 0, 1, -1,
				4, 5, 6, 7, -1,
			]
			solid FALSE
		}
	}
#---------- SOLID: capture_bar_18.0
	Shape {
		appearance Appearance {
			material Material {
				diffuseColor 1 1 1
				transparency 0.7
			}
		}
		geometry IndexedFaceSet {
			coord Coordinate {
				point [
					-530 -1000 -113,
					-470 -1000 -113,
					-470 1000 -113,
					-530 1000 -113,
					-530 -1000 -63,
					-470 -1000 -63,
					-470 1000 -63,
					-530 1000 -63,
				]
			}
			coordIndex [
				0, 3, 2, 1, -1,
				4, 7, 3, 0, -1,
				7, 6, 2, 3, -1,
				6, 5, 1, 2, -1,
				5, 4, 0, 1, -1,
				4, 5, 6, 7, -1,
			]
			solid FALSE
		}
	}
#---------- SOLID: capture_bar_19.0
	Shape {
		appearance Appearance {
			material Material {
				diffuseColor 1 1 1
				transparency 0.7
			}
		}
		geometry IndexedFaceSet {
			coord Coordinate {
				point [
					-530 -1000 -62,
					-470 -1000 -62,
					-470 1000 -62,
					-530 1000 -62,
					-530 -1000 -12,
					-470 -1000 -12,
					-470 1000 -12,
					-530 1000 -12,
				]
			}
			coordIndex [
				0, 3, 2, 1, -1,
				4, 7, 3, 0, -1,
				7, 6, 2, 3, -1,
				6, 5, 1, 2, -1,
				5, 4, 0, 1, -1,
				4, 5, 6, 7, -1,
			]
			solid FALSE
		}
	}
#---------- SOLID: capture_bar_2.0
	Shape {
		appearance Appearance {
			material Material {
				diffuseColor 1 1 1
				transparency 0.7
			}
		}
		geometry IndexedFaceSet {
			coord Coordinate {
				point [
					-530 -1000 -929,
					-470 -1000 -929,
					-470 1000 -929,
					-530 1000 -929,
					-530 -1000 -879,
					-470 -1000 -879,
					-470 1000 -879,
					-530 1000 -879,
				]
			}
			coordIndex [
				0, 3, 2, 1, -1,
				4, 7, 3, 0, -1,
				7, 6, 2, 3, -1,
				6, 5, 1, 2, -1,
				5, 4, 0, 1, -1,
				4, 5, 6, 7, -1,
			]
			solid FALSE
		}
	}
#---------- SOLID: capture_bar_20.0
	Shape {
		appearance Appearance {
			material Material {
				diffuseColor 1 1 1
				transparency 0.7
			}
		}
		geometry IndexedFaceSet {
			coord Coordinate {
				point [
					-530 -1000 -11,
					-470 -1000 -11,
					-470 1000 -11,
					-530 1000 -11,
					-530 -1000 39,
					-470 -1000 39,
					-470 1000 39,
					-530 1000 39,
				]
			}
			coordIndex [
				0, 3, 2, 1, -1,
				4, 7, 3, 0, -1,
				7, 6, 2, 3, -1,
				6, 5, 1, 2, -1,
				5, 4, 0, 1, -1,
				4, 5, 6, 7, -1,
			]
			solid FALSE
		}
	}
#---------- SOLID: capture_bar_21.0
	Shape {
		appearance Appearance {
			material Material {
				diffuseColor 1 1 1
				transparency 0.7
			}
		}
		geometry IndexedFaceSet {
			coord Coordinate {
				point [
					-530 -1000 40,
					-470 -1000 40,
					-470 1000 40,
					-530 1000 40,
					-530 -1000 90,
					-470 -1000 90,
					-470 1000 90,
					-530 1000 90,
				]
			}
			coordIndex [
				0, 3, 2, 1, -1,
				4, 7, 3, 0, -1,
				7, 6, 2, 3, -1,
				6, 5, 1, 2, -1,
				5, 4, 0, 1, -1,
				4, 5, 6, 7, -1,
			]
			solid FALSE
		}
	}
#---------- SOLID: capture_bar_22.0
	Shape {
		appearance Appearance {
			material Material {
				diffuseColor 1 1 1
				transparency 0.7
			}
		}
		geometry IndexedFaceSet {
			coord Coordinate {
				point [
					-530 -1000 91,
					-470 -1000 91,
					-470 1000 91,
					-530 1000 91,
					-530 -1000 141,
					-470 -1000 141,
					-470 1000 141,
					-530 1000 141,
				]
			}
			coordIndex [
				0, 3, 2, 1, -1,
				4, 7, 3, 0, -1,
				7, 6, 2, 3, -1,
				6, 5, 1, 2, -1,
				5, 4, 0, 1, -1,
				4, 5, 6, 7, -1,
			]
			solid FALSE
		}
	}
#---------- SOLID: capture_bar_23.0
	Shape {
		appearance Appearance {
			material Material {
				diffuseColor 1 1 1
				transparency 0.7
			}
		}
		geometry IndexedFaceSet {
			coord Coordinate {
				point [
					-530 -1000 142,
					-470 -1000 142,
					-470 1000 142,
					-530 1000 142,
					-530 -1000 192,
					-470 -1000 192,
					-470 1000 192,
					-530 1000 192,
				]
			}
			coordIndex [
				0, 3, 2, 1, -1,
				4, 7, 3, 0, -1,
				7, 6, 2, 3, -1,
				6, 5, 1, 2, -1,
				5, 4, 0, 1, -1,
				4, 5, 6, 7, -1,
			]
			solid FALSE
		}
	}
#---------- SOLID: capture_bar_24.0
	Shape {
		appearance Appearance {
			material Material {
				diffuseColor 1 1 1
				transparency 0.7
			}
		}
		geometry IndexedFaceSet {
			coord Coordinate {
				point [
					-530 -1000 193,
					-470 -1000 193,
					-470 1000 193,
					-530 1000 193,
					-530 -1000 243,
					-470 -1000 243,
					-470 1000 243,
					-530 1000 243,
				]
			}
			coordIndex [
				0, 3, 2, 1, -1,
				4, 7, 3, 0, -1,
				7, 6, 2, 3, -1,
				6, 5, 1, 2, -1,
				5, 4, 0, 1, -1,
				4, 5, 6, 7, -1,
			]
			solid FALSE
		}
	}
#---------- SOLID: capture_bar_25.0
	Shape {
		appearance Appearance {
			material Material {
				diffuseColor 1 1 1
				transparency 0.7
			}
		}
		geometry IndexedFaceSet {
			coord Coordinate {
				point [
					-530 -1000 244,
					-470 -1000 244,
					-470 1000 244,
					-530 1000 244,
					-530 -1000 294,
					-470 -1000 294,
					-470 1000 294,
					-530 1000 294,
				]
			}
			coordIndex [
				0, 3, 2, 1, -1,
				4, 7, 3, 0, -1,
				7, 6, 2, 3, -1,
				6, 5, 1, 2, -1,
				5, 4, 0, 1, -1,
				4, 5, 6, 7, -1,
			]
			solid FALSE
		}
	}
#---------- SOLID: capture_bar_26.0
	Shape {
		appearance Appearance {
			material Material {
				diffuseColor 1 1 1
				transparency 0.7
			}
		}
		geometry IndexedFaceSet {
			coord Coordinate {
				point [
					-530 -1000 295,
					-470 -1000 295,
					-470 1000 295,
					-530 1000 295,
					-530 -1000 345,
					-470 -1000 345,
					-470 1000 345,
					-530 1000 345,
				]
			}
			coordIndex [
				0, 3, 2, 1, -1,
				4, 7, 3, 0, -1,
				7, 6, 2, 3, -1,
				6, 5, 1, 2, -1,
				5, 4, 0, 1, -1,
				4, 5, 6, 7, -1,
			]
			solid FALSE
		}
	}
#---------- SOLID: capture_bar_27.0
	Shape {
		appearance Appearance {
			material Material {
				diffuseColor 1 1 1
				transparency 0.7
			}
		}
		geometry IndexedFaceSet {
			coord Coordinate {
				point [
					-530 -1000 346,
					-470 -1000 346,
					-470 1000 346,
					-530 1000 346,
					-530 -1000 396,
					-470 -1000 396,
					-470 1000 396,
					-530 1000 396,
				]
			}
			coordIndex [
				0, 3, 2, 1, -1,
				4, 7, 3, 0, -1,
				7, 6, 2, 3, -1,
				6, 5, 1, 2, -1,
				5, 4, 0, 1, -1,
				4, 5, 6, 7, -1,
			]
			solid FALSE
		}
	}
#---------- SOLID: capture_bar_28.0
	Shape {
		appearance Appearance {
			material Material {
				diffuseColor 1 1 1
				transparency 0.7
			}
		}
		geometry IndexedFaceSet {
			coord Coordinate {
				point [
					-530 -1000 397,
					-470 -1000 397,
					-470 1000 397,
					-530 1000 397,
					-530 -1000 447,
					-470 -1000 447,
					-470 1000 447,
					-530 1000 447,
				]
			}
			coordIndex [
				0, 3, 2, 1, -1,
				4, 7, 3, 0, -1,
				7, 6, 2, 3, -1,
				6, 5, 1, 2, -1,
				5, 4, 0, 1, -1,
				4, 5, 6, 7, -1,
			]
			solid FALSE
		}
	}
#---------- SOLID: capture_bar_29.0
	Shape {
		appearance Appearance {
			material Material {
				diffuseColor 1 1 1
				transparency 0.7
			}
		}
		geometry IndexedFaceSet {
			coord Coordinate {
				point [
					-530 -1000 448,
					-470 -1000 448,
					-470 1000 448,
					-530 1000 448,
					-530 -1000 498,
					-470 -1000 498,
					-470 1000 498,
					-530 1000 498,
				]
			}
			coordIndex [
				0, 3, 2, 1, -1,
				4, 7, 3, 0, -1,
				7, 6, 2, 3, -1,
				6, 5, 1, 2, -1,
				5, 4, 0, 1, -1,
				4, 5, 6, 7, -1,
			]
			solid FALSE
		}
	}
#---------- SOLID: capture_bar_3.0
	Shape {
		appearance Appearance {
			material Material {
				diffuseColor 1 1 1
				transparency 0.7
			}
		}
		geometry IndexedFaceSet {
			coord Coordinate {
				point [
					-530 -1000 -878,
					-470 -1000 -878,
					-470 1000 -878,
					-530 1000 -878,
					-530 -1000 -828,
					-470 -1000 -828,
					-470 1000 -828,
					-530 1000 -828,
				]
			}
			coordIndex [
				0, 3, 2, 1, -1,
				4, 7, 3, 0, -1,
				7, 6, 2, 3, -1,
				6, 5, 1, 2, -1,
				5, 4, 0, 1, -1,
				4, 5, 6, 7, -1,
			]
			solid FALSE
		}
	}
#---------- SOLID: capture_bar_30.0
	Shape {
		appearance Appearance {
			material Material {
				diffuseColor 1 1 1
				transparency 0.7
			}
		}
		geometry IndexedFaceSet {
			coord Coordinate {
				point [
					-530 -1000 499,
					-470 -1000 499,
					-470 1000 499,
					-530 1000 499,
					-530 -1000 549,
					-470 -1000 549,
					-470 1000 549,
					-530 1000 549,
				]
			}
			coordIndex [
				0, 3, 2, 1, -1,
				4, 7, 3, 0, -1,
				7, 6, 2, 3, -1,
				6, 5, 1, 2, -1,
				5, 4, 0, 1, -1,
				4, 5, 6, 7, -1,
			]
			solid FALSE
		}
	}
#---------- SOLID: capture_bar_31.0
	Shape {
		appearance Appearance {
			material Material {
				diffuseColor 1 1 1
				transparency 0.7
			}
		}
		geometry IndexedFaceSet {
			coord Coordinate {
				point [
					-530 -1000 550,
					-470 -1000 550,
					-470 1000 550,
					-530 1000 550,
					-530 -1000 600,
					-470 -1000 600,
					-470 1000 600,
					-530 1000 600,
				]
			}
			coordIndex [
				0, 3, 2, 1, -1,
				4, 7, 3, 0, -1,
				7, 6, 2, 3, -1,
				6, 5, 1, 2, -1,
				5, 4, 0, 1, -1,
				4, 5, 6, 7, -1,
			]
			solid FALSE
		}
	}
#---------- SOLID: capture_bar_32.0
	Shape {
		appearance Appearance {
			material Material {
				diffuseColor 1 1 1
				transparency 0.7
			}
		}
		geometry IndexedFaceSet {
			coord Coordinate {
				point [
					-530 -1000 601,
					-470 -1000 601,
					-470 1000 601,
					-530 1000 601,
					-530 -1000 651,
					-470 -1000 651,
					-470 1000 651,
					-530 1000 651,
				]
			}
			coordIndex [
				0, 3, 2, 1, -1,
				4, 7, 3, 0, -1,
				7, 6, 2, 3, -1,
				6, 5, 1, 2, -1,
				5, 4, 0, 1, -1,
				4, 5, 6, 7, -1,
			]
			solid FALSE
		}
	}
#---------- SOLID: capture_bar_33.0
	Shape {
		appearance Appearance {
			material Material {
				diffuseColor 1 1 1
				transparency 0.7
			}
		}
		geometry IndexedFaceSet {
			coord Coordinate {
				point [
					-530 -1000 652,
					-470 -1000 652,
					-470 1000 652,
					-530 1000 652,
					-530 -1000 702,
					-470 -1000 702,
					-470 1000 702,
					-530 1000 702,
				]
			}
			coordIndex [
				0, 3, 2, 1, -1,
				4, 7, 3, 0, -1,
				7, 6, 2, 3, -1,
				6, 5, 1, 2, -1,
				5, 4, 0, 1, -1,
				4, 5, 6, 7, -1,
			]
			solid FALSE
		}
	}
#---------- SOLID: capture_bar_34.0
	Shape {
		appearance Appearance {
			material Material {
				diffuseColor 1 1 1
				transparency 0.7
			}
		}
		geometry IndexedFaceSet {
			coord Coordinate {
				point [
					-530 -1000 703,
					-470 -1000 703,
					-470 1000 703,
					-530 1000 703,
					-530 -1000 753,
					-470 -1000 753,
					-470 1000 753,
					-530 1000 753,
				]
			}
			coordIndex [
				0, 3, 2, 1, -1,
				4, 7, 3, 0, -1,
				7, 6, 2, 3, -1,
				6, 5, 1, 2, -1,
				5, 4, 0, 1, -1,
				4, 5, 6, 7, -1,
			]
			solid FALSE
		}
	}
#---------- SOLID: capture_bar_35.0
	Shape {
		appearance Appearance {
			material Material {
				diffuseColor 1 1 1
				transparency 0.7
			}
		}
		geometry IndexedFaceSet {
			coord Coordinate {
				point [
					-530 -1000 754,
					-470 -1000 754,
					-470 1000 754,
					-530 1000 754,
					-530 -1000 804,
					-470 -1000 804,
					-470 1000 804,
					-530 1000 804,
				]
			}
			coordIndex [
				0, 3, 2, 1, -1,
				4, 7, 3, 0, -1,
				7, 6, 2, 3, -1,
				6, 5, 1, 2, -1,
				5, 4, 0, 1, -1,
				4, 5, 6, 7, -1,
			]
			solid FALSE
		}
	}
#---------- SOLID: capture_bar_36.0
	Shape {
		appearance Appearance {
			material Material {
				diffuseColor 1 1 1
				transparency 0.7
			}
		}
		geometry IndexedFaceSet {
			coord Coordinate {
				point [
					-530 -1000 805,
					-470 -1000 805,
					-470 1000 805,
					-530 1000 805,
					-530 -1000 855,
					-470 -1000 855,
					-470 1000 855,
					-530 1000 855,
				]
			}
			coordIndex [
				0, 3, 2, 1, -1,
				4, 7, 3, 0, -1,
				7, 6, 2, 3, -1,
				6, 5, 1, 2, -1,
				5, 4, 0, 1, -1,
				4, 5, 6, 7, -1,
			]
			solid FALSE
		}
	}
#---------- SOLID: capture_bar_37.0
	Shape {
		appearance Appearance {
			material Material {
				diffuseColor 1 1 1
				transparency 0.7
			}
		}
		geometry IndexedFaceSet {
			coord Coordinate {
				point [
					-530 -1000 856,
					-470 -1000 856,
					-470 1000 856,
					-530 1000 856,
					-530 -1000 906,
					-470 -1000 906,
					-470 1000 906,
					-530 1000 906,
				]
			}
			coordIndex [
				0, 3, 2, 1, -1,
				4, 7, 3, 0, -1,
				7, 6, 2, 3, -1,
				6, 5, 1, 2, -1,
				5, 4, 0, 1, -1,
				4, 5, 6, 7, -1,
			]
			solid FALSE
		}
	}
#---------- SOLID: capture_bar_38.0
	Shape {
		appearance Appearance {
			material Material {
				diffuseColor 1 1 1
				transparency 0.7
			}
		}
		geometry IndexedFaceSet {
			coord Coordinate {
				point [
					-530 -1000 907,
					-470 -1000 907,
					-470 1000 907,
					-530 1000 907,
					-530 -1000 957,
					-470 -1000 957,
					-470 1000 957,
					-530 1000 957,
				]
			}
			coordIndex [
				0, 3, 2, 1, -1,
				4, 7, 3, 0, -1,
				7, 6, 2, 3, -1,
				6, 5, 1, 2, -1,
				5, 4, 0, 1, -1,
				4, 5, 6, 7, -1,
			]
			solid FALSE
		}
	}
#---------- SOLID: capture_bar_39.0
	Shape {
		appearance Appearance {
			material Material {
				diffuseColor 1 1 1
				transparency 0.7
			}
		}
		geometry IndexedFaceSet {
			coord Coordinate {
				point [
					-530 -1000 958,
					-470 -1000 958,
					-470 1000 958,
					-530 1000 958,
					-530 -1000 1008,
					-470 -1000 1008,
					-470 1000 1008,
					-530 1000 1008,
				]
			}
			coordIndex [
				0, 3, 2, 1, -1,
				4, 7, 3, 0, -1,
				7, 6, 2, 3, -1,
				6, 5, 1, 2, -1,
				5, 4, 0, 1, -1,
				4, 5, 6, 7, -1,
			]
			solid FALSE
		}
	}
#---------- SOLID: capture_bar_4.0
	Shape {
		appearance Appearance {
			material Material {
				diffuseColor 1 1 1
				transparency 0.7
			}
		}
		geometry IndexedFaceSet {
			coord Coordinate {
				point [
					-530 -1000 -827,
					-470 -1000 -827,
					-470 1000 -827,
					-530 1000 -827,
					-530 -1000 -777,
					-470 -1000 -777,
					-470 1000 -777,
					-530 1000 -777,
				]
			}
			coordIndex [
				0, 3, 2, 1, -1,
				4, 7, 3, 0, -1,
				7, 6, 2, 3, -1,
				6, 5, 1, 2, -1,
				5, 4, 0, 1, -1,
				4, 5, 6, 7, -1,
			]
			solid FALSE
		}
	}
#---------- SOLID: capture_bar_40.0
	Shape {
		appearance Appearance {
			material Material {
				diffuseColor 1 1 1
				transparency 0.7
			}
		}
		geometry IndexedFaceSet {
			coord Coordinate {
				point [
					-530 -1000 1009,
					-470 -1000 1009,
					-470 1000 1009,
					-530 1000 1009,
					-530 -1000 1059,
					-470 -1000 1059,
					-470 1000 1059,
					-530 1000 1059,
				]
			}
			coordIndex [
				0, 3, 2, 1, -1,
				4, 7, 3, 0, -1,
				7, 6, 2, 3, -1,
				6, 5, 1, 2, -1,
				5, 4, 0, 1, -1,
				4, 5, 6, 7, -1,
			]
			solid FALSE
		}
	}
#---------- SOLID: capture_bar_5.0
	Shape {
		appearance Appearance {
			material Material {
				diffuseColor 1 1 1
				transparency 0.7
			}
		}
		geometry IndexedFaceSet {
			coord Coordinate {
				point [
					-530 -1000 -776,
					-470 -1000 -776,
					-470 1000 -776,
					-530 1000 -776,
					-530 -1000 -726,
					-470 -1000 -726,
					-470 1000 -726,
					-530 1000 -726,
				]
			}
			coordIndex [
				0, 3, 2, 1, -1,
				4, 7, 3, 0, -1,
				7, 6, 2, 3, -1,
				6, 5, 1, 2, -1,
				5, 4, 0, 1, -1,
				4, 5, 6, 7, -1,
			]
			solid FALSE
		}
	}
#---------- SOLID: capture_bar_6.0
	Shape {
		appearance Appearance {
			material Material {
				diffuseColor 1 1 1
				transparency 0.7
			}
		}
		geometry IndexedFaceSet {
			coord Coordinate {
				point [
					-530 -1000 -725,
					-470 -1000 -725,
					-470 1000 -725,
					-530 1000 -725,
					-530 -1000 -675,
					-470 -1000 -675,
					-470 1000 -675,
					-530 1000 -675,
				]
			}
			coordIndex [
				0, 3, 2, 1, -1,
				4, 7, 3, 0, -1,
				7, 6, 2, 3, -1,
				6, 5, 1, 2, -1,
				5, 4, 0, 1, -1,
				4, 5, 6, 7, -1,
			]
			solid FALSE
		}
	}
#---------- SOLID: capture_bar_7.0
	Shape {
		appearance Appearance {
			material Material {
				diffuseColor 1 1 1
				transparency 0.7
			}
		}
		geometry IndexedFaceSet {
			coord Coordinate {
				point [
					-530 -1000 -674,
					-470 -1000 -674,
					-470 1000 -674,
					-530 1000 -674,
					-530 -1000 -624,
					-470 -1000 -624,
					-470 1000 -624,
					-530 1000 -624,
				]
			}
			coordIndex [
				0, 3, 2, 1, -1,
				4, 7, 3, 0, -1,
				7, 6, 2, 3, -1,
				6, 5, 1, 2, -1,
				5, 4, 0, 1, -1,
				4, 5, 6, 7, -1,
			]
			solid FALSE
		}
	}
#---------- SOLID: capture_bar_8.0
	Shape {
		appearance Appearance {
			material Material {
				diffuseColor 1 1 1
				transparency 0.7
			}
		}
		geometry IndexedFaceSet {
			coord Coordinate {
				point [
					-530 -1000 -623,
					-470 -1000 -623,
					-470 1000 -623,
					-530 1000 -623,
					-530 -1000 -573,
					-470 -1000 -573,
					-470 1000 -573,
					-530 1000 -573,
				]
			}
			coordIndex [
				0, 3, 2, 1, -1,
				4, 7, 3, 0, -1,
				7, 6, 2, 3, -1,
				6, 5, 1, 2, -1,
				5, 4, 0, 1, -1,
				4, 5, 6, 7, -1,
			]
			solid FALSE
		}
	}
#---------- SOLID: capture_bar_9.0
	Shape {
		appearance Appearance {
			material Material {
				diffuseColor 1 1 1
				transparency 0.7
			}
		}
		geometry IndexedFaceSet {
			coord Coordinate {
				point [
					-530 -1000 -572,
					-470 -1000 -572,
					-470 1000 -572,
					-530 1000 -572,
					-530 -1000 -522,
					-470 -1000 -522,
					-470 1000 -522,
					-530 1000 -522,
				]
			}
			coordIndex [
				0, 3, 2, 1, -1,
				4, 7, 3, 0, -1,
				7, 6, 2, 3, -1,
				6, 5, 1, 2, -1,
				5, 4, 0, 1, -1,
				4, 5, 6, 7, -1,
			]
			solid FALSE
		}
	}
#---------- SOLID: target_plane.0
	Shape {
		appearance Appearance {
			material Material {
				diffuseColor 1 1 1
				transparency 0.7
			}
		}
		geometry IndexedFaceSet {
			coord Coordinate {
				point [
					497 -1005 -1025,
					503 -1005 -1025,
					503 1005 -1025,
					497 1005 -1025,
					497 -1005 1025,
					503 -1005 1025,
					503 1005 1025,
					497 1005 1025,
				]
			}
			coordIndex [
				0, 3, 2, 1, -1,
				4, 7, 3, 0, -1,
				7, 6, 2, 3, -1,
				6, 5, 1, 2, -1,
				5, 4, 0, 1, -1,
				4, 5, 6, 7, -1,
			]
			solid FALSE
		}
	}
#---------- SOLID: target_bar_1.0
	Shape {
		appearance Appearance {
			material Material {
				diffuseColor 1 1 1
				transparency 0.7
			}
		}
		geometry IndexedFaceSet {
			coord Coordinate {
				point [
					497.5 -1000 -980,
					502.5 -1000 -980,
					502.5 1000 -980,
					497.5 1000 -980,
					497.5 -1000 -930,
					502.5 -1000 -930,
					502.5 1000 -930,
					497.5 1000 -930,
				]
			}
			coordIndex [
				0, 3, 2, 1, -1,
				4, 7, 3, 0, -1,
				7, 6, 2, 3, -1,
				6, 5, 1, 2, -1,
				5, 4, 0, 1, -1,
				4, 5, 6, 7, -1,
			]
			solid FALSE
		}
	}
#---------- SOLID: target_bar_10.0
	Shape {
		appearance Appearance {
			material Material {
				diffuseColor 1 1 1
				transparency 0.7
			}
		}
		geometry IndexedFaceSet {
			coord Coordinate {
				point [
					497.5 -1000 -521,
					502.5 -1000 -521,
					502.5 1000 -521,
					497.5 1000 -521,
					497.5 -1000 -471,
					502.5 -1000 -471,
					502.5 1000 -471,
					497.5 1000 -471,
				]
			}
			coordIndex [
				0, 3, 2, 1, -1,
				4, 7, 3, 0, -1,
				7, 6, 2, 3, -1,
				6, 5, 1, 2, -1,
				5, 4, 0, 1, -1,
				4, 5, 6, 7, -1,
			]
			solid FALSE
		}
	}
#---------- SOLID: target_bar_11.0
	Shape {
		appearance Appearance {
			material Material {
				diffuseColor 1 1 1
				transparency 0.7
			}
		}
		geometry IndexedFaceSet {
			coord Coordinate {
				point [
					497.5 -1000 -470,
					502.5 -1000 -470,
					502.5 1000 -470,
					497.5 1000 -470,
					497.5 -1000 -420,
					502.5 -1000 -420,
					502.5 1000 -420,
					497.5 1000 -420,
				]
			}
			coordIndex [
				0, 3, 2, 1, -1,
				4, 7, 3, 0, -1,
				7, 6, 2, 3, -1,
				6, 5, 1, 2, -1,
				5, 4, 0, 1, -1,
				4, 5, 6, 7, -1,
			]
			solid FALSE
		}
	}
#---------- SOLID: target_bar_12.0
	Shape {
		appearance Appearance {
			material Material {
				diffuseColor 1 1 1
				transparency 0.7
			}
		}
		geometry IndexedFaceSet {
			coord Coordinate {
				point [
					497.5 -1000 -419,
					502.5 -1000 -419,
					502.5 1000 -419,
					497.5 1000 -419,
					497.5 -1000 -369,
					502.5 -1000 -369,
					502.5 1000 -369,
					497.5 1000 -369,
				]
			}
			coordIndex [
				0, 3, 2, 1, -1,
				4, 7, 3, 0, -1,
				7, 6, 2, 3, -1,
				6, 5, 1, 2, -1,
				5, 4, 0, 1, -1,
				4, 5, 6, 7, -1,
			]
			solid FALSE
		}
	}
#---------- SOLID: target_bar_13.0
	Shape {
		appearance Appearance {
			material Material {
				diffuseColor 1 1 1
				transparency 0.7
			}
		}
		geometry IndexedFaceSet {
			coord Coordinate {
				point [
					497.5 -1000 -368,
					502.5 -1000 -368,
					502.5 1000 -368,
					497.5 1000 -368,
					497.5 -1000 -318,
					502.5 -1000 -318,
					502.5 1000 -318,
					497.5 1000 -318,
				]
			}
			coordIndex [
				0, 3, 2, 1, -1,
				4, 7, 3, 0, -1,
				7, 6, 2, 3, -1,
				6, 5, 1, 2, -1,
				5, 4, 0, 1, -1,
				4, 5, 6, 7, -1,
			]
			solid FALSE
		}
	}
#---------- SOLID: target_bar_14.0
	Shape {
		appearance Appearance {
			material Material {
				diffuseColor 1 1 1
				transparency 0.7
			}
		}
		geometry IndexedFaceSet {
			coord Coordinate {
				point [
					497.5 -1000 -317,
					502.5 -1000 -317,
					502.5 1000 -317,
					497.5 1000 -317,
					497.5 -1000 -267,
					502.5 -1000 -267,
					502.5 1000 -267,
					497.5 1000 -267,
				]
			}
			coordIndex [
				0, 3, 2, 1, -1,
				4, 7, 3, 0, -1,
				7, 6, 2, 3, -1,
				6, 5, 1, 2, -1,
				5, 4, 0, 1, -1,
				4, 5, 6, 7, -1,
			]
			solid FALSE
		}
	}
#---------- SOLID: target_bar_15.0
	Shape {
		appearance Appearance {
			material Material {
				diffuseColor 1 1 1
				transparency 0.7
			}
		}
		geometry IndexedFaceSet {
			coord Coordinate {
				point [
					497.5 -1000 -266,
					502.5 -1000 -266,
					502.5 1000 -266,
					497.5 1000 -266,
					497.5 -1000 -216,
					502.5 -1000 -216,
					502.5 1000 -216,
					497.5 1000 -216,
				]
			}
			coordIndex [
				0, 3, 2, 1, -1,
				4, 7, 3, 0, -1,
				7, 6, 2, 3, -1,
				6, 5, 1, 2, -1,
				5, 4, 0, 1, -1,
				4, 5, 6, 7, -1,
			]
			solid FALSE
		}
	}
#---------- SOLID: target_bar_16.0
	Shape {
		appearance Appearance {
			material Material {
				diffuseColor 1 1 1
				transparency 0.7
			}
		}
		geometry IndexedFaceSet {
			coord Coordinate {
				point [
					497.5 -1000 -215,
					502.5 -1000 -215,
					502.5 1000 -215,
					497.5 1000 -215,
					497.5 -1000 -165,
					502.5 -1000 -165,
					502.5 1000 -165,
					497.5 1000 -165,
				]
			}
			coordIndex [
				0, 3, 2, 1, -1,
				4, 7, 3, 0, -1,
				7, 6, 2, 3, -1,
				6, 5, 1, 2, -1,
				5, 4, 0, 1, -1,
				4, 5, 6, 7, -1,
			]
			solid FALSE
		}
	}
#---------- SOLID: target_bar_17.0
	Shape {
		appearance Appearance {
			material Material {
				diffuseColor 1 1 1
				transparency 0.7
			}
		}
		geometry IndexedFaceSet {
			coord Coordinate {
				point [
					497.5 -1000 -164,
					502.5 -1000 -164,
					502.5 1000 -164,
					497.5 1000 -164,
					497.5 -1000 -114,
					502.5 -1000 -114,
					502.5 1000 -114,
					497.5 1000 -114,
				]
			}
			coordIndex [
				0, 3, 2, 1, -1,
				4, 7, 3, 0, -1,
				7, 6, 2, 3, -1,
				6, 5, 1, 2, -1,
				5, 4, 0, 1, -1,
				4, 5, 6, 7, -1,
			]
			solid FALSE
		}
	}
#---------- SOLID: target_bar_18.0
	Shape {
		appearance Appearance {
			material Material {
				diffuseColor 1 1 1
				transparency 0.7
			}
		}
		geometry IndexedFaceSet {
			coord Coordinate {
				point [
					497.5 -1000 -113,
					502.5 -1000 -113,
					502.5 1000 -113,
					497.5 1000 -113,
					497.5 -1000 -63,
					502.5 -1000 -63,
					502.5 1000 -63,
					497.5 1000 -63,
				]
			}
			coordIndex [
				0, 3, 2, 1, -1,
				4, 7, 3, 0, -1,
				7, 6, 2, 3, -1,
				6, 5, 1, 2, -1,
				5, 4, 0, 1, -1,
				4, 5, 6, 7, -1,
			]
			solid FALSE
		}
	}
#---------- SOLID: target_bar_19.0
	Shape {
		appearance Appearance {
			material Material {
				diffuseColor 1 1 1
				transparency 0.7
			}
		}
		geometry IndexedFaceSet {
			coord Coordinate {
				point [
					497.5 -1000 -62,
					502.5 -1000 -62,
					502.5 1000 -62,
					497.5 1000 -62,
					497.5 -1000 -12,
					502.5 -1000 -12,
					502.5 1000 -12,
					497.5 1000 -12,
				]
			}
			coordIndex [
				0, 3, 2, 1, -1,
				4, 7, 3, 0, -1,
				7, 6, 2, 3, -1,
				6, 5, 1, 2, -1,
				5, 4, 0, 1, -1,
				4, 5, 6, 7, -1,
			]
			solid FALSE
		}
	}
#---------- SOLID: target_bar_2.0
	Shape {
		appearance Appearance {
			material Material {
				diffuseColor 1 1 1
				transparency 0.7
			}
		}
		geometry IndexedFaceSet {
			coord Coordinate {
				point [
					497.5 -1000 -929,
					502.5 -1000 -929,
					502.5 1000 -929,
					497.5 1000 -929,
					497.5 -1000 -879,
					502.5 -1000 -879,
					502.5 1000 -879,
					497.5 1000 -879,
				]
			}
			coordIndex [
				0, 3, 2, 1, -1,
				4, 7, 3, 0, -1,
				7, 6, 2, 3, -1,
				6, 5, 1, 2, -1,
				5, 4, 0, 1, -1,
				4, 5, 6, 7, -1,
			]
			solid FALSE
		}
	}
#---------- SOLID: target_bar_20.0
	Shape {
		appearance Appearance {
			material Material {
				diffuseColor 1 1 1
				transparency 0.7
			}
		}
		geometry IndexedFaceSet {
			coord Coordinate {
				point [
					497.5 -1000 -11,
					502.5 -1000 -11,
					502.5 1000 -11,
					497.5 1000 -11,
					497.5 -1000 39,
					502.5 -1000 39,
					502.5 1000 39,
					497.5 1000 39,
				]
			}
			coordIndex [
				0, 3, 2, 1, -1,
				4, 7, 3, 0, -1,
				7, 6, 2, 3, -1,
				6, 5, 1, 2, -1,
				5, 4, 0, 1, -1,
				4, 5, 6, 7, -1,
			]
			solid FALSE
		}
	}
#---------- SOLID: target_bar_21.0
	Shape {
		appearance Appearance {
			material Material {
				diffuseColor 1 1 1
				transparency 0.7
			}
		}
		geometry IndexedFaceSet {
			coord Coordinate {
				point [
					497.5 -1000 40,
					502.5 -1000 40,
					502.5 1000 40,
					497.5 1000 40,
					497.5 -1000 90,
					502.5 -1000 90,
					502.5 1000 90,
					497.5 1000 90,
				]
			}
			coordIndex [
				0, 3, 2, 1, -1,
				4, 7, 3, 0, -1,
				7, 6, 2, 3, -1,
				6, 5, 1, 2, -1,
				5, 4, 0, 1, -1,
				4, 5, 6, 7, -1,
			]
			solid FALSE
		}
	}
#---------- SOLID: target_bar_22.0
	Shape {
		appearance Appearance {
			material Material {
				diffuseColor 1 1 1
				transparency 0.7
			}
		}
		geometry IndexedFaceSet {
			coord Coordinate {
				point [
					497.5 -1000 91,
					502.5 -1000 91,
					502.5 1000 91,
					497.5 1000 91,
					497.5 -1000 141,
					502.5 -1000 141,
					502.5 1000 141,
					497.5 1000 141,
				]
			}
			coordIndex [
				0, 3, 2, 1, -1,
				4, 7, 3, 0, -1,
				7, 6, 2, 3, -1,
				6, 5, 1, 2, -1,
				5, 4, 0, 1, -1,
				4, 5, 6, 7, -1,
			]
			solid FALSE
		}
	}
#---------- SOLID: target_bar_23.0
	Shape {
		appearance Appearance {
			material Material {
				diffuseColor 1 1 1
				transparency 0.7
			}
		}
		geometry IndexedFaceSet {
			coord Coordinate {
				point [
					497.5 -1000 142,
					502.5 -1000 142,
					502.5 1000 142,
					497.5 1000 142,
					497.5 -1000 192,
					502.5 -1000 192,
					502.5 1000 192,
					497.5 1000 192,
				]
			}
			coordIndex [
				0, 3, 2, 1, -1,
				4, 7, 3, 0, -1,
				7, 6, 2, 3, -1,
				6, 5, 1, 2, -1,
				5, 4, 0, 1, -1,
				4, 5, 6, 7, -1,
			]
			solid FALSE
		}
	}
#---------- SOLID: target_bar_24.0
	Shape {
		appearance Appearance {
			material Material {
				diffuseColor 1 1 1
				transparency 0.7
			}
		}
		geometry IndexedFaceSet {
			coord Coordinate {
				point [
					497.5 -1000 193,
					502.5 -1000 193,
					502.5 1000 193,
					497.5 1000 193,
					497.5 -1000 243,
					502.5 -1000 243,
					502.5 1000 243,
					497.5 1000 243,
				]
			}
			coordIndex [
				0, 3, 2, 1, -1,
				4, 7, 3, 0, -1,
				7, 6, 2, 3, -1,
				6, 5, 1, 2, -1,
				5, 4, 0, 1, -1,
				4, 5, 6, 7, -1,
			]
			solid FALSE
		}
	}
#---------- SOLID: target_bar_25.0
	Shape {
		appearance Appearance {
			material Material {
				diffuseColor 1 1 1
				transparency 0.7
			}
		}
		geometry IndexedFaceSet {
			coord Coordinate {
				point [
					497.5 -1000 244,
					502.5 -1000 244,
					502.5 1000 244,
					497.5 1000 244,
					497.5 -1000 294,
					502.5 -1000 294,
					502.5 1000 294,
					497.5 1000 294,
				]
			}
			coordIndex [
				0, 3, 2, 1, -1,
				4, 7, 3, 0, -1,
				7, 6, 2, 3, -1,
				6, 5, 1, 2, -1,
				5, 4, 0, 1, -1,
				4, 5, 6, 7, -1,
			]
			solid FALSE
		}
	}
#---------- SOLID: target_bar_26.0
	Shape {
		appearance Appearance {
			material Material {
				diffuseColor 1 1 1
				transparency 0.7
			}
		}
		geometry IndexedFaceSet {
			coord Coordinate {
				point [
					497.5 -1000 295,
					502.5 -1000 295,
					502.5 1000 295,
					497.5 1000 295,
					497.5 -1000 345,
					502.5 -1000 345,
					502.5 1000 345,
					497.5 1000 345,
				]
			}
			coordIndex [
				0, 3, 2, 1, -1,
				4, 7, 3, 0, -1,
				7, 6, 2, 3, -1,
				6, 5, 1, 2, -1,
				5, 4, 0, 1, -1,
				4, 5, 6, 7, -1,
			]
			solid FALSE
		}
	}
#---------- SOLID: target_bar_27.0
	Shape {
		appearance Appearance {
			material Material {
				diffuseColor 1 1 1
				transparency 0.7
			}
		}
		geometry IndexedFaceSet {
			coord Coordinate {
				point [
					497.5 -1000 346,
					502.5 -1000 346,
					502.5 1000 346,
					497.5 1000 346,
					497.5 -1000 396,
					502.5 -1000 396,
					502.5 1000 396,
					497.5 1000 396,
				]
			}
			coordIndex [
				0, 3, 2, 1, -1,
				4, 7, 3, 0, -1,
				7, 6, 2, 3, -1,
				6, 5, 1, 2, -1,
				5, 4, 0, 1, -1,
				4, 5, 6, 7, -1,
			]
			solid FALSE
		}
	}
#---------- SOLID: target_bar_28.0
	Shape {
		appearance Appearance {
			material Material {
				diffuseColor 1 1 1
				transparency 0.7
			}
		}
		geometry IndexedFaceSet {
			coord Coordinate {
				point [
					497.5 -1000 397,
					502.5 -1000 397,
					502.5 1000 397,
					497.5 1000 397,
					497.5 -1000 447,
					502.5 -1000 447,
					502.5 1000 447,
					497.5 1000 447,
				]
			}
			coordIndex [
				0, 3, 2, 1, -1,
				4, 7, 3, 0, -1,
				7, 6, 2, 3, -1,
				6, 5, 1, 2, -1,
				5, 4, 0, 1, -1,
				4, 5, 6, 7, -1,
			]
			solid FALSE
		}
	}
#---------- SOLID: target_bar_29.0
	Shape {
		appearance Appearance {
			material Material {
				diffuseColor 1 1 1
				transparency 0.7
			}
		}
		geometry IndexedFaceSet {
			coord Coordinate {
				point [
					497.5 -1000 448,
					502.5 -1000 448,
					502.5 1000 448,
					497.5 1000 448,
					497.5 -1000 498,
					502.5 -1000 498,
					502.5 1000 498,
					497.5 1000 498,
				]
			}
			coordIndex [
				0, 3, 2, 1, -1,
				4, 7, 3, 0, -1,
				7, 6, 2, 3, -1,
				6, 5, 1, 2, -1,
				5, 4, 0, 1, -1,
				4, 5, 6, 7, -1,
			]
			solid FALSE
		}
	}
#---------- SOLID: target_bar_3.0
	Shape {
		appearance Appearance {
			material Material {
				diffuseColor 1 1 1
				transparency 0.7
			}
		}
		geometry IndexedFaceSet {
			coord Coordinate {
				point [
					497.5 -1000 -878,
					502.5 -1000 -878,
					502.5 1000 -878,
					497.5 1000 -878,
					497.5 -1000 -828,
					502.5 -1000 -828,
					502.5 1000 -828,
					497.5 1000 -828,
				]
			}
			coordIndex [
				0, 3, 2, 1, -1,
				4, 7, 3, 0, -1,
				7, 6, 2, 3, -1,
				6, 5, 1, 2, -1,
				5, 4, 0, 1, -1,
				4, 5, 6, 7, -1,
			]
			solid FALSE
		}
	}
#---------- SOLID: target_bar_30.0
	Shape {
		appearance Appearance {
			material Material {
				diffuseColor 1 1 1
				transparency 0.7
			}
		}
		geometry IndexedFaceSet {
			coord Coordinate {
				point [
					497.5 -1000 499,
					502.5 -1000 499,
					502.5 1000 499,
					497.5 1000 499,
					497.5 -1000 549,
					502.5 -1000 549,
					502.5 1000 549,
					497.5 1000 549,
				]
			}
			coordIndex [
				0, 3, 2, 1, -1,
				4, 7, 3, 0, -1,
				7, 6, 2, 3, -1,
				6, 5, 1, 2, -1,
				5, 4, 0, 1, -1,
				4, 5, 6, 7, -1,
			]
			solid FALSE
		}
	}
#---------- SOLID: target_bar_31.0
	Shape {
		appearance Appearance {
			material Material {
				diffuseColor 1 1 1
				transparency 0.7
			}
		}
		geometry IndexedFaceSet {
			coord Coordinate {
				point [
					497.5 -1000 550,
					502.5 -1000 550,
					502.5 1000 550,
					497.5 1000 550,
					497.5 -1000 600,
					502.5 -1000 600,
					502.5 1000 600,
					497.5 1000 600,
				]
			}
			coordIndex [
				0, 3, 2, 1, -1,
				4, 7, 3, 0, -1,
				7, 6, 2, 3, -1,
				6, 5, 1, 2, -1,
				5, 4, 0, 1, -1,
				4, 5, 6, 7, -1,
			]
			solid FALSE
		}
	}
#---------- SOLID: target_bar_32.0
	Shape {
		appearance Appearance {
			material Material {
				diffuseColor 1 1 1
				transparency 0.7
			}
		}
		geometry IndexedFaceSet {
			coord Coordinate {
				point [
					497.5 -1000 601,
					502.5 -1000 601,
					502.5 1000 601,
					497.5 1000 601,
					497.5 -1000 651,
					502.5 -1000 651,
					502.5 1000 651,
					497.5 1000 651,
				]
			}
			coordIndex [
				0, 3, 2, 1, -1,
				4, 7, 3, 0, -1,
				7, 6, 2, 3, -1,
				6, 5, 1, 2, -1,
				5, 4, 0, 1, -1,
				4, 5, 6, 7, -1,
			]
			solid FALSE
		}
	}
#---------- SOLID: target_bar_33.0
	Shape {
		appearance Appearance {
			material Material {
				diffuseColor 1 1 1
				transparency 0.7
			}
		}
		geometry IndexedFaceSet {
			coord Coordinate {
				point [
					497.5 -1000 652,
					502.5 -1000 652,
					502.5 1000 652,
					497.5 1000 652,
					497.5 -1000 702,
					502.5 -1000 702,
					502.5 1000 702,
					497.5 1000 702,
				]
			}
			coordIndex [
				0, 3, 2, 1, -1,
				4, 7, 3, 0, -1,
				7, 6, 2, 3, -1,
				6, 5, 1, 2, -1,
				5, 4, 0, 1, -1,
				4, 5, 6, 7, -1,
			]
			solid FALSE
		}
	}
#---------- SOLID: target_bar_34.0
	Shape {
		appearance Appearance {
			material Material {
				diffuseColor 1 1 1
				transparency 0.7
			}
		}
		geometry IndexedFaceSet {
			coord Coordinate {
				point [
					497.5 -1000 703,
					502.5 -1000 703,
					502.5 1000 703,
					497.5 1000 703,
					497.5 -1000 753,
					502.5 -1000 753,
					502.5 1000 753,
					497.5 1000 753,
				]
			}
			coordIndex [
				0, 3, 2, 1, -1,
				4, 7, 3, 0, -1,
				7, 6, 2, 3, -1,
				6, 5, 1, 2, -1,
				5, 4, 0, 1, -1,
				4, 5, 6, 7, -1,
			]
			solid FALSE
		}
	}
#---------- SOLID: target_bar_35.0
	Shape {
		appearance Appearance {
			material Material {
				diffuseColor 1 1 1
				transparency 0.7
			}
		}
		geometry IndexedFaceSet {
			coord Coordinate {
				point [
					497.5 -1000 754,
					502.5 -1000 754,
					502.5 1000 754,
					497.5 1000 754,
					497.5 -1000 804,
					502.5 -1000 804,
					502.5 1000 804,
					497.5 1000 804,
				]
			}
			coordIndex [
				0, 3, 2, 1, -1,
				4, 7, 3, 0, -1,
				7, 6, 2, 3, -1,
				6, 5, 1, 2, -1,
				5, 4, 0, 1, -1,
				4, 5, 6, 7, -1,
			]
			solid FALSE
		}
	}
#---------- SOLID: target_bar_36.0
	Shape {
		appearance Appearance {
			material Material {
				diffuseColor 1 1 1
				transparency 0.7
			}
		}
		geometry IndexedFaceSet {
			coord Coordinate {
				point [
					497.5 -1000 805,
					502.5 -1000 805,
					502.5 1000 805,
					497.5 1000 805,
					497.5 -1000 855,
					502.5 -1000 855,
					502.5 1000 855,
					497.5 1000 855,
				]
			}
			coordIndex [
				0, 3, 2, 1, -1,
				4, 7, 3, 0, -1,
				7, 6, 2, 3, -1,
				6, 5, 1, 2, -1,
				5, 4, 0, 1, -1,
				4, 5, 6, 7, -1,
			]
			solid FALSE
		}
	}
#---------- SOLID: target_bar_37.0
	Shape {
		appearance Appearance {
			material Material {
				diffuseColor 1 1 1
				transparency 0.7
			}
		}
		geometry IndexedFaceSet {
			coord Coordinate {
				point [
					497.5 -1000 856,
					502.5 -1000 856,
					502.5 1000 856,
					497.5 1000 856,
					497.5 -1000 906,
					502.5 -1000 906,
					502.5 1000 906,
					497.5 1000 906,
				]
			}
			coordIndex [
				0, 3, 2, 1, -1,
				4, 7, 3, 0, -1,
				7, 6, 2, 3, -1,
				6, 5, 1, 2, -1,
				5, 4, 0, 1, -1,
				4, 5, 6, 7, -1,
			]
			solid FALSE
		}
	}
#---------- SOLID: target_bar_38.0
	Shape {
		appearance Appearance {
			material Material {
				diffuseColor 1 1 1
				transparency 0.7
			}
		}
		geometry IndexedFaceSet {
			coord Coordinate {
				point [
					497.5 -1000 907,
					502.5 -1000 907,
					502.5 1000 907,
					497.5 1000 907,
					497.5 -1000 957,
					502.5 -1000 957,
					502.5 1000 957,
					497.5 1000 957,
				]
			}
			coordIndex [
				0, 3, 2, 1, -1,
				4, 7, 3, 0, -1,
				7, 6, 2, 3, -1,
				6, 5, 1, 2, -1,
				5, 4, 0, 1, -1,
				4, 5, 6, 7, -1,
			]
			solid FALSE
		}
	}
#---------- SOLID: target_bar_39.0
	Shape {
		appearance Appearance {
			material Material {
				diffuseColor 1 1 1
				transparency 0.7
			}
		}
		geometry IndexedFaceSet {
			coord Coordinate {
				point [
					497.5 -1000 958,
					502.5 -1000 958,
					502.5 1000 958,
					497.5 1000 958,
					497.5 -1000 1008,
					502.5 -1000 1008,
					502.5 1000 1008,
					497.5 1000 1008,
				]
			}
			coordIndex [
				0, 3, 2, 1, -1,
				4, 7, 3, 0, -1,
				7, 6, 2, 3, -1,
				6, 5, 1, 2, -1,
				5, 4, 0, 1, -1,
				4, 5, 6, 7, -1,
			]
			solid FALSE
		}
	}
#---------- SOLID: target_bar_4.0
	Shape {
		appearance Appearance {
			material Material {
				diffuseColor 1 1 1
				transparency 0.7
			}
		}
		geometry IndexedFaceSet {
			coord Coordinate {
				point [
					497.5 -1000 -827,
					502.5 -1000 -827,
					502.5 1000 -827,
					497.5 1000 -827,
					497.5 -1000 -777,
					502.5 -1000 -777,
					502.5 1000 -777,
					497.5 1000 -777,
				]
			}
			coordIndex [
				0, 3, 2, 1, -1,
				4, 7, 3, 0, -1,
				7, 6, 2, 3, -1,
				6, 5, 1, 2, -1,
				5, 4, 0, 1, -1,
				4, 5, 6, 7, -1,
			]
			solid FALSE
		}
	}
#---------- SOLID: target_bar_40.0
	Shape {
		appearance Appearance {
			material Material {
				diffuseColor 1 1 1
				transparency 0.7
			}
		}
		geometry IndexedFaceSet {
			coord Coordinate {
				point [
					497.5 -1000 1009,
					502.5 -1000 1009,
					502.5 1000 1009,
					497.5 1000 1009,
					497.5 -1000 1059,
					502.5 -1000 1059,
					502.5 1000 1059,
					497.5 1000 1059,
				]
			}
			coordIndex [
				0, 3, 2, 1, -1,
				4, 7, 3, 0, -1,
				7, 6, 2, 3, -1,
				6, 5, 1, 2, -1,
				5, 4, 0, 1, -1,
				4, 5, 6, 7, -1,
			]
			solid FALSE
		}
	}
#---------- SOLID: target_bar_5.0
	Shape {
		appearance Appearance {
			material Material {
				diffuseColor 1 1 1
				transparency 0.7
			}
		}
		geometry IndexedFaceSet {
			coord Coordinate {
				point [
					497.5 -1000 -776,
					502.5 -1000 -776,
					502.5 1000 -776,
					497.5 1000 -776,
					497.5 -1000 -726,
					502.5 -1000 -726,
					502.5 1000 -726,
					497.5 1000 -726,
				]
			}
			coordIndex [
				0, 3, 2, 1, -1,
				4, 7, 3, 0, -1,
				7, 6, 2, 3, -1,
				6, 5, 1, 2, -1,
				5, 4, 0, 1, -1,
				4, 5, 6, 7, -1,
			]
			solid FALSE
		}
	}
#---------- SOLID: target_bar_6.0
	Shape {
		appearance Appearance {
			material Material {
				diffuseColor 1 1 1
				transparency 0.7
			}
		}
		geometry IndexedFaceSet {
			coord Coordinate {
				point [
					497.5 -1000 -725,
					502.5 -1000 -725,
					502.5 1000 -725,
					497.5 1000 -725,
					497.5 -1000 -675,
					502.5 -1000 -675,
					502.5 1000 -675,
					497.5 1000 -675,
				]
			}
			coordIndex [
				0, 3, 2, 1, -1,
				4, 7, 3, 0, -1,
				7, 6, 2, 3, -1,
				6, 5, 1, 2, -1,
				5, 4, 0, 1, -1,
				4, 5, 6, 7, -1,
			]
			solid FALSE
		}
	}
#---------- SOLID: target_bar_7.0
	Shape {
		appearance Appearance {
			material Material {
				diffuseColor 1 1 1
				transparency 0.7
			}
		}
		geometry IndexedFaceSet {
			coord Coordinate {
				point [
					497.5 -1000 -674,
					502.5 -1000 -674,
					502.5 1000 -674,
					497.5 1000 -674,
					497.5 -1000 -624,
					502.5 -1000 -624,
					502.5 1000 -624,
					497.5 1000 -624,
				]
			}
			coordIndex [
				0, 3, 2, 1, -1,
				4, 7, 3, 0, -1,
				7, 6, 2, 3, -1,
				6, 5, 1, 2, -1,
				5, 4, 0, 1, -1,
				4, 5, 6, 7, -1,
			]
			solid FALSE
		}
	}
#---------- SOLID: target_bar_8.0
	Shape {
		appearance Appearance {
			material Material {
				diffuseColor 1 1 1
				transparency 0.7
			}
		}
		geometry IndexedFaceSet {
			coord Coordinate {
				point [
					497.5 -1000 -623,
					502.5 -1000 -623,
					502.5 1000 -623,
					497.5 1000 -623,
					497.5 -1000 -573,
					502.5 -1000 -573,
					502.5 1000 -573,
					497.5 1000 -573,
				]
			}
			coordIndex [
				0, 3, 2, 1, -1,
				4, 7, 3, 0, -1,
				7, 6, 2, 3, -1,
				6, 5, 1, 2, -1,
				5, 4, 0, 1, -1,
				4, 5, 6, 7, -1,
			]
			solid FALSE
		}
	}
#---------- SOLID: target_bar_9.0
	Shape {
		appearance Appearance {
			material Material {
				diffuseColor 1 1 1
				transparency 0.7
			}
		}
		geometry IndexedFaceSet {
			coord Coordinate {
				point [
					497.5 -1000 -572,
					502.5 -1000 -572,
					502.5 1000 -572,
					497.5 1000 -572,
					497.5 -1000 -522,
					502.5 -1000 -522,
					502.5 1000 -522,
					497.5 1000 -522,
				]
			}
			coordIndex [
				0, 3, 2, 1, -1,
				4, 7, 3, 0, -1,
				7, 6, 2, 3, -1,
				6, 5, 1, 2, -1,
				5, 4, 0, 1, -1,
				4, 5, 6, 7, -1,
			]
			solid FALSE
		}
	}
#End of file.
