<?xml version="1.0" encoding="UTF-8"?>
<!DOCTYPE X3D PUBLIC "ISO//Web3D//DTD X3D 3.0//EN" "http://www.web3d.org/specifications/x3d-3.0.dtd">
<X3D profile="Interchange" version="3.0"
     xmlns:xsd="http://www.w3.org/2001/XMLSchema-instance"
     xsd:noNamespaceSchemaLocation="http://www.web3d.org/specifications/x3d-3.0.xsd">
<head>
	<meta name="generator" content="tovrmlx3d, http://castle-engine.sourceforge.net/view3dscene.php#section_converting" />
	<meta name="source" content="santa.wrl" />
</head>
<Scene>
	<Viewpoint
		position="0 0 7274.60986328125" />
	<Shape>
		<Appearance>
			<Material
				diffuseColor="0.800000011920929 0.100000001490116 0.100000001490116"
				transparency="0.699999988079071" />
		</Appearance>
		<IndexedFaceSet
			coordIndex="0 3 2 1 -1 4 7 3 0 -1 7 6 2 3 -1 6 5 1 2 -1 5 4 0 1 -1 4 5 6 7 -1"
			solid="false">
			<Coordinate
				point="-2100 -2100 -2100 2100 -2100 -2100 2100 2100 -2100 -2100 2100 -2100 -2100 -2100 2100 2100 -2100 2100 2100 2100 2100 -2100 2100 2100" />
		</IndexedFaceSet>
	</Shape>
	<Shape>
		<Appearance>
			<Material
				diffuseColor="1 1 1"
				transparency="0.699999988079071" />
		</Appearance>
		<IndexedFaceSet
			coordIndex="0 3 2 1 -1 4 7 3 0 -1 7 6 2 3 -1 6 5 1 2 -1 5 4 0 1 -1 4 5 6 7 -1"
			solid="false">
			<Coordinate
				point="-1010 -1500 -1500 1010 -1500 -1500 1010 1500 -1500 -1010 1500 -1500 -1010 -1500 1500 1010 -1500 1500 1010 1500 1500 -1010 1500 1500" />
		</IndexedFaceSet>
	</Shape>
	<Shape>
		<Appearance>
			<Material
				transparency="0.699999988079071" />
		</Appearance>
		<IndexedFaceSet
			coordIndex="0 3 2 1 -1 4 7 3 0 -1 7 6 2 3 -1 6 5 1 2 -1 5 4 0 1 -1 4 5 6 7 -1"
			solid="false">
			<Coordinate
				point="-540 -1010 -1100 540 -1010 -1100 540 1010 -1100 -540 1010 -1100 -540 -1010 1100 540 -1010 1100 540 1010 1100 -540 1010 1100" />
		</IndexedFaceSet>
	</Shape>
	<Shape>
		<Appearance>
			<Material
				diffuseColor="1 1 1"
				transparency="0.699999988079071" />
		</Appearance>
		<IndexedFaceSet
			coordIndex="0 3 2 1 -1 4 7 3 0 -1 7 6 2 3 -1 6 5 1 2 -1 5 4 0 1 -1 4 5 6 7 -1"
			solid="false">
			<Coordinate
				point="-535 -1005 -1025 -465 -1005 -1025 -465 1005 -1025 -535 1005 -1025 -535 -1005 1025 -465 -1005 1025 -465 1005 1025 -535 1005 1025" />
		</IndexedFaceSet>
	</Shape>
	<Shape>
		<Appearance>
			<Material
				diffuseColor="1 1 1"
				transparency="0.699999988079071" />
		</Appearance>
		<IndexedFaceSet
			coordIndex="0 3 2 1 -1 4 7 3 0 -1 7 6 2 3 -1 6 5 1 2 -1 5 4 0 1 -1 4 5 6 7 -1"
			solid="false">
			<Coordinate
				point="-530 -1000 -980 -470 -1000 -980 -470 1000 -980 -530 1000 -980 -530 -1000 -930 -470 -1000 -930 -470 1000 -930 -530 1000 -930" />
		</IndexedFaceSet>
	</Shape>
	<Shape>
		<Appearance>
			<Material
				diffuseColor="1 1 1"
				transparency="0.699999988079071" />
		</Appearance>
		<IndexedFaceSet
			coordIndex="0 3 2 1 -1 4 7 3 0 -1 7 6 2 3 -1 6 5 1 2 -1 5 4 0 1 -1 4 5 6 7 -1"
			solid="false">
			<Coordinate
				point="-530 -1000 -521 -470 -1000 -521 -470 1000 -521 -530 1000 -521 -530 -1000 -471 -470 -1000 -471 -470 1000 -471 -530 1000 -471" />
		</IndexedFaceSet>
	</Shape>
	<Shape>
		<Appearance>
			<Material
				diffuseColor="1 1 1"
				transparency="0.699999988079071" />
		</Appearance>
		<IndexedFaceSet
			coordIndex="0 3 2 1 -1 4 7 3 0 -1 7 6 2 3 -1 6 5 1 2 -1 5 4 0 1 -1 4 5 6 7 -1"
			solid="false">
			<Coordinate
				point="-530 -1000 -470 -470 -1000 -470 -470 1000 -470 -530 1000 -470 -530 -1000 -420 -470 -1000 -420 -470 1000 -420 -530 1000 -420" />
		</IndexedFaceSet>
	</Shape>
	<Shape>
		<Appearance>
			<Material
				diffuseColor="1 1 1"
				transparency="0.699999988079071" />
		</Appearance>
		<IndexedFaceSet
			coordIndex="0 3 2 1 -1 4 7 3 0 -1 7 6 2 3 -1 6 5 1 2 -1 5 4 0 1 -1 4 5 6 7 -1"
			solid="false">
			<Coordinate
				point="-530 -1000 -419 -470 -1000 -419 -470 1000 -419 -530 1000 -419 -530 -1000 -369 -470 -1000 -369 -470 1000 -369 -530 1000 -369" />
		</IndexedFaceSet>
	</Shape>
	<Shape>
		<Appearance>
			<Material
				diffuseColor="1 1 1"
				transparency="0.699999988079071" />
		</Appearance>
		<IndexedFaceSet
			coordIndex="0 3 2 1 -1 4 7 3 0 -1 7 6 2 3 -1 6 5 1 2 -1 5 4 0 1 -1 4 5 6 7 -1"
			solid="false">
			<Coordinate
				point="-530 -1000 -368 -470 -1000 -368 -470 1000 -368 -530 1000 -368 -530 -1000 -318 -470 -1000 -318 -470 1000 -318 -530 1000 -318" />
		</IndexedFaceSet>
	</Shape>
	<Shape>
		<Appearance>
			<Material
				diffuseColor="1 1 1"
				transparency="0.699999988079071" />
		</Appearance>
		<IndexedFaceSet
			coordIndex="0 3 2 1 -1 4 7 3 0 -1 7 6 2 3 -1 6 5 1 2 -1 5 4 0 1 -1 4 5 6 7 -1"
			solid="false">
			<Coordinate
				point="-530 -1000 -317 -470 -1000 -317 -470 1000 -317 -530 1000 -317 -530 -1000 -267 -470 -1000 -267 -470 1000 -267 -530 1000 -267" />
		</IndexedFaceSet>
	</Shape>
	<Shape>
		<Appearance>
			<Material
				diffuseColor="1 1 1"
				transparency="0.699999988079071" />
		</Appearance>
		<IndexedFaceSet
			coordIndex="0 3 2 1 -1 4 7 3 0 -1 7 6 2 3 -1 6 5 1 2 -1 5 4 0 1 -1 4 5 6 7 -1"
			solid="false">
			<Coordinate
				point="-530 -1000 -266 -470 -1000 -266 -470 1000 -266 -530 1000 -266 -530 -1000 -216 -470 -1000 -216 -470 1000 -216 -530 1000 -216" />
		</IndexedFaceSet>
	</Shape>
	<Shape>
		<Appearance>
			<Material
				diffuseColor="1 1 1"
				transparency="0.699999988079071" />
		</Appearance>
		<IndexedFaceSet
			coordIndex="0 3 2 1 -1 4 7 3 0 -1 7 6 2 3 -1 6 5 1 2 -1 5 4 0 1 -1 4 5 6 7 -1"
			solid="false">
			<Coordinate
				point="-530 -1000 -215 -470 -1000 -215 -470 1000 -215 -530 1000 -215 -530 -1000 -165 -470 -1000 -165 -470 1000 -165 -530 1000 -165" />
		</IndexedFaceSet>
	</Shape>
	<Shape>
		<Appearance>
			<Material
				diffuseColor="1 1 1"
				transparency="0.699999988079071" />
		</Appearance>
		<IndexedFaceSet
			coordIndex="0 3 2 1 -1 4 7 3 0 -1 7 6 2 3 -1 6 5 1 2 -1 5 4 0 1 -1 4 5 6 7 -1"
			solid="false">
			<Coordinate
				point="-530 -1000 -164 -470 -1000 -164 -470 1000 -164 -530 1000 -164 -530 -1000 -114 -470 -1000 -114 -470 1000 -114 -530 1000 -114" />
		</IndexedFaceSet>
	</Shape>
	<Shape>
		<Appearance>
			<Material
				diffuseColor="1 1 1"
				transparency="0.699999988079071" />
		</Appearance>
		<IndexedFaceSet
			coordIndex="0 3 2 1 -1 4 7 3 0 -1 7 6 2 3 -1 6 5 1 2 -1 5 4 0 1 -1 4 5 6 7 -1"
			solid="false">
			<Coordinate
				point="-530 -1000 -113 -470 -1000 -113 -470 1000 -113 -530 1000 -113 -530 -1000 -63 -470 -1000 -63 -470 1000 -63 -530 1000 -63" />
		</IndexedFaceSet>
	</Shape>
	<Shape>
		<Appearance>
			<Material
				diffuseColor="1 1 1"
				transparency="0.699999988079071" />
		</Appearance>
		<IndexedFaceSet
			coordIndex="0 3 2 1 -1 4 7 3 0 -1 7 6 2 3 -1 6 5 1 2 -1 5 4 0 1 -1 4 5 6 7 -1"
			solid="false">
			<Coordinate
				point="-530 -1000 -62 -470 -1000 -62 -470 1000 -62 -530 1000 -62 -530 -1000 -12 -470 -1000 -12 -470 1000 -12 -530 1000 -12" />
		</IndexedFaceSet>
	</Shape>
	<Shape>
		<Appearance>
			<Material
				diffuseColor="1 1 1"
				transparency="0.699999988079071" />
		</Appearance>
		<IndexedFaceSet
			coordIndex="0 3 2 1 -1 4 7 3 0 -1 7 6 2 3 -1 6 5 1 2 -1 5 4 0 1 -1 4 5 6 7 -1"
			solid="false">
			<Coordinate
				point="-530 -1000 -929 -470 -1000 -929 -470 1000 -929 -530 1000 -929 -530 -1000 -879 -470 -1000 -879 -470 1000 -879 -530 1000 -879" />
		</IndexedFaceSet>
	</Shape>
	<Shape>
		<Appearance>
			<Material
				diffuseColor="1 1 1"
				transparency="0.699999988079071" />
		</Appearance>
		<IndexedFaceSet
			coordIndex="0 3 2 1 -1 4 7 3 0 -1 7 6 2 3 -1 6 5 1 2 -1 5 4 0 1 -1 4 5 6 7 -1"
			solid="false">
			<Coordinate
				point="-530 -1000 -11 -470 -1000 -11 -470 1000 -11 -530 1000 -11 -530 -1000 39 -470 -1000 39 -470 1000 39 -530 1000 39" />
		</IndexedFaceSet>
	</Shape>
	<Shape>
		<Appearance>
			<Material
				diffuseColor="1 1 1"
				transparency="0.699999988079071" />
		</Appearance>
		<IndexedFaceSet
			coordIndex="0 3 2 1 -1 4 7 3 0 -1 7 6 2 3 -1 6 5 1 2 -1 5 4 0 1 -1 4 5 6 7 -1"
			solid="false">
			<Coordinate
				point="-530 -1000 40 -470 -1000 40 -470 1000 40 -530 1000 40 -530 -1000 90 -470 -1000 90 -470 1000 90 -530 1000 90" />
		</IndexedFaceSet>
	</Shape>
	<Shape>
		<Appearance>
			<Material
				diffuseColor="1 1 1"
				transparency="0.699999988079071" />
		</Appearance>
		<IndexedFaceSet
			coordIndex="0 3 2 1 -1 4 7 3 0 -1 7 6 2 3 -1 6 5 1 2 -1 5 4 0 1 -1 4 5 6 7 -1"
			solid="false">
			<Coordinate
				point="-530 -1000 91 -470 -1000 91 -470 1000 91 -530 1000 91 -530 -1000 141 -470 -1000 141 -470 1000 141 -530 1000 141" />
		</IndexedFaceSet>
	</Shape>
	<Shape>
		<Appearance>
			<Material
				diffuseColor="1 1 1"
				transparency="0.699999988079071" />
		</Appearance>
		<IndexedFaceSet
			coordIndex="0 3 2 1 -1 4 7 3 0 -1 7 6 2 3 -1 6 5 1 2 -1 5 4 0 1 -1 4 5 6 7 -1"
			solid="false">
			<Coordinate
				point="-530 -1000 142 -470 -1000 142 -470 1000 142 -530 1000 142 -530 -1000 192 -470 -1000 192 -470 1000 192 -530 1000 192" />
		</IndexedFaceSet>
	</Shape>
	<Shape>
		<Appearance>
			<Material
				diffuseColor="1 1 1"
				transparency="0.699999988079071" />
		</Appearance>
		<IndexedFaceSet
			coordIndex="0 3 2 1 -1 4 7 3 0 -1 7 6 2 3 -1 6 5 1 2 -1 5 4 0 1 -1 4 5 6 7 -1"
			solid="false">
			<Coordinate
				point="-530 -1000 193 -470 -1000 193 -470 1000 193 -530 1000 193 -530 -1000 243 -470 -1000 243 -470 1000 243 -530 1000 243" />
		</IndexedFaceSet>
	</Shape>
	<Shape>
		<Appearance>
			<Material
				diffuseColor="1 1 1"
				transparency="0.699999988079071" />
		</Appearance>
		<IndexedFaceSet
			coordIndex="0 3 2 1 -1 4 7 3 0 -1 7 6 2 3 -1 6 5 1 2 -1 5 4 0 1 -1 4 5 6 7 -1"
			solid="false">
			<Coordinate
				point="-530 -1000 244 -470 -1000 244 -470 1000 244 -530 1000 244 -530 -1000 294 -470 -1000 294 -470 1000 294 -530 1000 294" />
		</IndexedFaceSet>
	</Shape>
	<Shape>
		<Appearance>
			<Material
				diffuseColor="1 1 1"
				transparency="0.699999988079071" />
		</Appearance>
		<IndexedFaceSet
			coordIndex="0 3 2 1 -1 4 7 3 0 -1 7 6 2 3 -1 6 5 1 2 -1 5 4 0 1 -1 4 5 6 7 -1"
			solid="false">
			<Coordinate
				point="-530 -1000 295 -470 -1000 295 -470 1000 295 -530 1000 295 -530 -1000 345 -470 -1000 345 -470 1000 345 -530 1000 345" />
		</IndexedFaceSet>
	</Shape>
	<Shape>
		<Appearance>
			<Material
				diffuseColor="1 1 1"
				transparency="0.699999988079071" />
		</Appearance>
		<IndexedFaceSet
			coordIndex="0 3 2 1 -1 4 7 3 0 -1 7 6 2 3 -1 6 5 1 2 -1 5 4 0 1 -1 4 5 6 7 -1"
			solid="false">
			<Coordinate
				point="-530 -1000 346 -470 -1000 346 -470 1000 346 -530 1000 346 -530 -1000 396 -470 -1000 396 -470 1000 396 -530 1000 396" />
		</IndexedFaceSet>
	</Shape>
	<Shape>
		<Appearance>
			<Material
				diffuseColor="1 1 1"
				transparency="0.699999988079071" />
		</Appearance>
		<IndexedFaceSet
			coordIndex="0 3 2 1 -1 4 7 3 0 -1 7 6 2 3 -1 6 5 1 2 -1 5 4 0 1 -1 4 5 6 7 -1"
			solid="false">
			<Coordinate
				point="-530 -1000 397 -470 -1000 397 -470 1000 397 -530 1000 397 -530 -1000 447 -470 -1000 447 -470 1000 447 -530 1000 447" />
		</IndexedFaceSet>
	</Shape>
	<Shape>
		<Appearance>
			<Material
				diffuseColor="1 1 1"
				transparency="0.699999988079071" />
		</Appearance>
		<IndexedFaceSet
			coordIndex="0 3 2 1 -1 4 7 3 0 -1 7 6 2 3 -1 6 5 1 2 -1 5 4 0 1 -1 4 5 6 7 -1"
			solid="false">
			<Coordinate
				point="-530 -1000 448 -470 -1000 448 -470 1000 448 -530 1000 448 -530 -1000 498 -470 -1000 498 -470 1000 498 -530 1000 498" />
		</IndexedFaceSet>
	</Shape>
	<Shape>
		<Appearance>
			<Material
				diffuseColor="1 1 1"
				transparency="0.699999988079071" />
		</Appearance>
		<IndexedFaceSet
			coordIndex="0 3 2 1 -1 4 7 3 0 -1 7 6 2 3 -1 6 5 1 2 -1 5 4 0 1 -1 4 5 6 7 -1"
			solid="false">
			<Coordinate
				point="-530 -1000 -878 -470 -1000 -878 -470 1000 -878 -530 1000 -878 -530 -1000 -828 -470 -1000 -828 -470 1000 -828 -530 1000 -828" />
		</IndexedFaceSet>
	</Shape>
	<Shape>
		<Appearance>
			<Material
				diffuseColor="1 1 1"
				transparency="0.699999988079071" />
		</Appearance>
		<IndexedFaceSet
			coordIndex="0 3 2 1 -1 4 7 3 0 -1 7 6 2 3 -1 6 5 1 2 -1 5 4 0 1 -1 4 5 6 7 -1"
			solid="false">
			<Coordinate
				point="-530 -1000 499 -470 -1000 499 -470 1000 499 -530 1000 499 -530 -1000 549 -470 -1000 549 -470 1000 549 -530 1000 549" />
		</IndexedFaceSet>
	</Shape>
	<Shape>
		<Appearance>
			<Material
				diffuseColor="1 1 1"
				transparency="0.699999988079071" />
		</Appearance>
		<IndexedFaceSet
			coordIndex="0 3 2 1 -1 4 7 3 0 -1 7 6 2 3 -1 6 5 1 2 -1 5 4 0 1 -1 4 5 6 7 -1"
			solid="false">
			<Coordinate
				point="-530 -1000 550 -470 -1000 550 -470 1000 550 -530 1000 550 -530 -1000 600 -470 -1000 600 -470 1000 600 -530 1000 600" />
		</IndexedFaceSet>
	</Shape>
	<Shape>
		<Appearance>
			<Material
				diffuseColor="1 1 1"
				transparency="0.699999988079071" />
		</Appearance>
		<IndexedFaceSet
			coordIndex="0 3 2 1 -1 4 7 3 0 -1 7 6 2 3 -1 6 5 1 2 -1 5 4 0 1 -1 4 5 6 7 -1"
			solid="false">
			<Coordinate
				point="-530 -1000 601 -470 -1000 601 -470 1000 601 -530 1000 601 -530 -1000 651 -470 -1000 651 -470 1000 651 -530 1000 651" />
		</IndexedFaceSet>
	</Shape>
	<Shape>
		<Appearance>
			<Material
				diffuseColor="1 1 1"
				transparency="0.699999988079071" />
		</Appearance>
		<IndexedFaceSet
			coordIndex="0 3 2 1 -1 4 7 3 0 -1 7 6 2 3 -1 6 5 1 2 -1 5 4 0 1 -1 4 5 6 7 -1"
			solid="false">
			<Coordinate
				point="-530 -1000 652 -470 -1000 652 -470 1000 652 -530 1000 652 -530 -1000 702 -470 -1000 702 -470 1000 702 -530 1000 702" />
		</IndexedFaceSet>
	</Shape>
	<Shape>
		<Appearance>
			<Material
				diffuseColor="1 1 1"
				transparency="0.699999988079071" />
		</Appearance>
		<IndexedFaceSet
			coordIndex="0 3 2 1 -1 4 7 3 0 -1 7 6 2 3 -1 6 5 1 2 -1 5 4 0 1 -1 4 5 6 7 -1"
			solid="false">
			<Coordinate
				point="-530 -1000 703 -470 -1000 703 -470 1000 703 -530 1000 703 -530 -1000 753 -470 -1000 753 -470 1000 753 -530 1000 753" />
		</IndexedFaceSet>
	</Shape>
	<Shape>
		<Appearance>
			<Material
				diffuseColor="1 1 1"
				transparency="0.699999988079071" />
		</Appearance>
		<IndexedFaceSet
			coordIndex="0 3 2 1 -1 4 7 3 0 -1 7 6 2 3 -1 6 5 1 2 -1 5 4 0 1 -1 4 5 6 7 -1"
			solid="false">
			<Coordinate
				point="-530 -1000 754 -470 -1000 754 -470 1000 754 -530 1000 754 -530 -1000 804 -470 -1000 804 -470 1000 804 -530 1000 804" />
		</IndexedFaceSet>
	</Shape>
	<Shape>
		<Appearance>
			<Material
				diffuseColor="1 1 1"
				transparency="0.699999988079071" />
		</Appearance>
		<IndexedFaceSet
			coordIndex="0 3 2 1 -1 4 7 3 0 -1 7 6 2 3 -1 6 5 1 2 -1 5 4 0 1 -1 4 5 6 7 -1"
			solid="false">
			<Coordinate
				point="-530 -1000 805 -470 -1000 805 -470 1000 805 -530 1000 805 -530 -1000 855 -470 -1000 855 -470 1000 855 -530 1000 855" />
		</IndexedFaceSet>
	</Shape>
	<Shape>
		<Appearance>
			<Material
				diffuseColor="1 1 1"
				transparency="0.699999988079071" />
		</Appearance>
		<IndexedFaceSet
			coordIndex="0 3 2 1 -1 4 7 3 0 -1 7 6 2 3 -1 6 5 1 2 -1 5 4 0 1 -1 4 5 6 7 -1"
			solid="false">
			<Coordinate
				point="-530 -1000 856 -470 -1000 856 -470 1000 856 -530 1000 856 -530 -1000 906 -470 -1000 906 -470 1000 906 -530 1000 906" />
		</IndexedFaceSet>
	</Shape>
	<Shape>
		<Appearance>
			<Material
				diffuseColor="1 1 1"
				transparency="0.699999988079071" />
		</Appearance>
		<IndexedFaceSet
			coordIndex="0 3 2 1 -1 4 7 3 0 -1 7 6 2 3 -1 6 5 1 2 -1 5 4 0 1 -1 4 5 6 7 -1"
			solid="false">
			<Coordinate
				point="-530 -1000 907 -470 -1000 907 -470 1000 907 -530 1000 907 -530 -1000 957 -470 -1000 957 -470 1000 957 -530 1000 957" />
		</IndexedFaceSet>
	</Shape>
	<Shape>
		<Appearance>
			<Material
				diffuseColor="1 1 1"
				transparency="0.699999988079071" />
		</Appearance>
		<IndexedFaceSet
			coordIndex="0 3 2 1 -1 4 7 3 0 -1 7 6 2 3 -1 6 5 1 2 -1 5 4 0 1 -1 4 5 6 7 -1"
			solid="false">
			<Coordinate
				point="-530 -1000 958 -470 -1000 958 -470 1000 958 -530 1000 958 -530 -1000 1008 -470 -1000 1008 -470 1000 1008 -530 1000 1008" />
		</IndexedFaceSet>
	</Shape>
	<Shape>
		<Appearance>
			<Material
				diffuseColor="1 1 1"
				transparency="0.699999988079071" />
		</Appearance>
		<IndexedFaceSet
			coordIndex="0 3 2 1 -1 4 7 3 0 -1 7 6 2 3 -1 6 5 1 2 -1 5 4 0 1 -1 4 5 6 7 -1"
			solid="false">
			<Coordinate
				point="-530 -1000 -827 -470 -1000 -827 -470 1000 -827 -530 1000 -827 -530 -1000 -777 -470 -1000 -777 -470 1000 -777 -530 1000 -777" />
		</IndexedFaceSet>
	</Shape>
	<Shape>
		<Appearance>
			<Material
				diffuseColor="1 1 1"
				transparency="0.699999988079071" />
		</Appearance>
		<IndexedFaceSet
			coordIndex="0 3 2 1 -1 4 7 3 0 -1 7 6 2 3 -1 6 5 1 2 -1 5 4 0 1 -1 4 5 6 7 -1"
			solid="false">
			<Coordinate
				point="-530 -1000 1009 -470 -1000 1009 -470 1000 1009 -530 1000 1009 -530 -1000 1059 -470 -1000 1059 -470 1000 1059 -530 1000 1059" />
		</IndexedFaceSet>
	</Shape>
	<Shape>
		<Appearance>
			<Material
				diffuseColor="1 1 1"
				transparency="0.699999988079071" />
		</Appearance>
		<IndexedFaceSet
			coordIndex="0 3 2 1 -1 4 7 3 0 -1 7 6 2 3 -1 6 5 1 2 -1 5 4 0 1 -1 4 5 6 7 -1"
			solid="false">
			<Coordinate
				point="-530 -1000 -776 -470 -1000 -776 -470 1000 -776 -530 1000 -776 -530 -1000 -726 -470 -1000 -726 -470 1000 -726 -530 1000 -726" />
		</IndexedFaceSet>
	</Shape>
	<Shape>
		<Appearance>
			<Material
				diffuseColor="1 1 1"
				transparency="0.699999988079071" />
		</Appearance>
		<IndexedFaceSet
			coordIndex="0 3 2 1 -1 4 7 3 0 -1 7 6 2 3 -1 6 5 1 2 -1 5 4 0 1 -1 4 5 6 7 -1"
			solid="false">
			<Coordinate
				point="-530 -1000 -725 -470 -1000 -725 -470 1000 -725 -530 1000 -725 -530 -1000 -675 -470 -1000 -675 -470 1000 -675 -530 1000 -675" />
		</IndexedFaceSet>
	</Shape>
	<Shape>
		<Appearance>
			<Material
				diffuseColor="1 1 1"
				transparency="0.699999988079071" />
		</Appearance>
		<IndexedFaceSet
			coordIndex="0 3 2 1 -1 4 7 3 0 -1 7 6 2 3 -1 6 5 1 2 -1 5 4 0 1 -1 4 5 6 7 -1"
			solid="false">
			<Coordinate
				point="-530 -1000 -674 -470 -1000 -674 -470 1000 -674 -530 1000 -674 -530 -1000 -624 -470 -1000 -624 -470 1000 -624 -530 1000 -624" />
		</IndexedFaceSet>
	</Shape>
	<Shape>
		<Appearance>
			<Material
				diffuseColor="1 1 1"
				transparency="0.699999988079071" />
		</Appearance>
		<IndexedFaceSet
			coordIndex="0 3 2 1 -1 4 7 3 0 -1 7 6 2 3 -1 6 5 1 2 -1 5 4 0 1 -1 4 5 6 7 -1"
			solid="false">
			<Coordinate
				point="-530 -1000 -623 -470 -1000 -623 -470 1000 -623 -530 1000 -623 -530 -1000 -573 -470 -1000 -573 -470 1000 -573 -530 1000 -573" />
		</IndexedFaceSet>
	</Shape>
	<Shape>
		<Appearance>
			<Material
				diffuseColor="1 1 1"
				transparency="0.699999988079071" />
		</Appearance>
		<IndexedFaceSet
			coordIndex="0 3 2 1 -1 4 7 3 0 -1 7 6 2 3 -1 6 5 1 2 -1 5 4 0 1 -1 4 5 6 7 -1"
			solid="false">
			<Coordinate
				point="-530 -1000 -572 -470 -1000 -572 -470 1000 -572 -530 1000 -572 -530 -1000 -522 -470 -1000 -522 -470 1000 -522 -530 1000 -522" />
		</IndexedFaceSet>
	</Shape>
	<Shape>
		<Appearance>
			<Material
				diffuseColor="1 1 1"
				transparency="0.699999988079071" />
		</Appearance>
		<IndexedFaceSet
			coordIndex="0 3 2 1 -1 4 7 3 0 -1 7 6 2 3 -1 6 5 1 2 -1 5 4 0 1 -1 4 5 6 7 -1"
			solid="false">
			<Coordinate
				point="497 -1005 -1025 503 -1005 -1025 503 1005 -1025 497 1005 -1025 497 -1005 1025 503 -1005 1025 503 1005 1025 497 1005 1025" />
		</IndexedFaceSet>
	</Shape>
	<Shape>
		<Appearance>
			<Material
				diffuseColor="1 1 1"
				transparency="0.699999988079071" />
		</Appearance>
		<IndexedFaceSet
			coordIndex="0 3 2 1 -1 4 7 3 0 -1 7 6 2 3 -1 6 5 1 2 -1 5 4 0 1 -1 4 5 6 7 -1"
			solid="false">
			<Coordinate
				point="497.5 -1000 -980 502.5 -1000 -980 502.5 1000 -980 497.5 1000 -980 497.5 -1000 -930 502.5 -1000 -930 502.5 1000 -930 497.5 1000 -930" />
		</IndexedFaceSet>
	</Shape>
	<Shape>
		<Appearance>
			<Material
				diffuseColor="1 1 1"
				transparency="0.699999988079071" />
		</Appearance>
		<IndexedFaceSet
			coordIndex="0 3 2 1 -1 4 7 3 0 -1 7 6 2 3 -1 6 5 1 2 -1 5 4 0 1 -1 4 5 6 7 -1"
			solid="false">
			<Coordinate
				point="497.5 -1000 -521 502.5 -1000 -521 502.5 1000 -521 497.5 1000 -521 497.5 -1000 -471 502.5 -1000 -471 502.5 1000 -471 497.5 1000 -471" />
		</IndexedFaceSet>
	</Shape>
	<Shape>
		<Appearance>
			<Material
				diffuseColor="1 1 1"
				transparency="0.699999988079071" />
		</Appearance>
		<IndexedFaceSet
			coordIndex="0 3 2 1 -1 4 7 3 0 -1 7 6 2 3 -1 6 5 1 2 -1 5 4 0 1 -1 4 5 6 7 -1"
			solid="false">
			<Coordinate
				point="497.5 -1000 -470 502.5 -1000 -470 502.5 1000 -470 497.5 1000 -470 497.5 -1000 -420 502.5 -1000 -420 502.5 1000 -420 497.5 1000 -420" />
		</IndexedFaceSet>
	</Shape>
	<Shape>
		<Appearance>
			<Material
				diffuseColor="1 1 1"
				transparency="0.699999988079071" />
		</Appearance>
		<IndexedFaceSet
			coordIndex="0 3 2 1 -1 4 7 3 0 -1 7 6 2 3 -1 6 5 1 2 -1 5 4 0 1 -1 4 5 6 7 -1"
			solid="false">
			<Coordinate
				point="497.5 -1000 -419 502.5 -1000 -419 502.5 1000 -419 497.5 1000 -419 497.5 -1000 -369 502.5 -1000 -369 502.5 1000 -369 497.5 1000 -369" />
		</IndexedFaceSet>
	</Shape>
	<Shape>
		<Appearance>
			<Material
				diffuseColor="1 1 1"
				transparency="0.699999988079071" />
		</Appearance>
		<IndexedFaceSet
			coordIndex="0 3 2 1 -1 4 7 3 0 -1 7 6 2 3 -1 6 5 1 2 -1 5 4 0 1 -1 4 5 6 7 -1"
			solid="false">
			<Coordinate
				point="497.5 -1000 -368 502.5 -1000 -368 502.5 1000 -368 497.5 1000 -368 497.5 -1000 -318 502.5 -1000 -318 502.5 1000 -318 497.5 1000 -318" />
		</IndexedFaceSet>
	</Shape>
	<Shape>
		<Appearance>
			<Material
				diffuseColor="1 1 1"
				transparency="0.699999988079071" />
		</Appearance>
		<IndexedFaceSet
			coordIndex="0 3 2 1 -1 4 7 3 0 -1 7 6 2 3 -1 6 5 1 2 -1 5 4 0 1 -1 4 5 6 7 -1"
			solid="false">
			<Coordinate
				point="497.5 -1000 -317 502.5 -1000 -317 502.5 1000 -317 497.5 1000 -317 497.5 -1000 -267 502.5 -1000 -267 502.5 1000 -267 497.5 1000 -267" />
		</IndexedFaceSet>
	</Shape>
	<Shape>
		<Appearance>
			<Material
				diffuseColor="1 1 1"
				transparency="0.699999988079071" />
		</Appearance>
		<IndexedFaceSet
			coordIndex="0 3 2 1 -1 4 7 3 0 -1 7 6 2 3 -1 6 5 1 2 -1 5 4 0 1 -1 4 5 6 7 -1"
			solid="false">
			<Coordinate
				point="497.5 -1000 -266 502.5 -1000 -266 502.5 1000 -266 497.5 1000 -266 497.5 -1000 -216 502.5 -1000 -216 502.5 1000 -216 497.5 1000 -216" />
		</IndexedFaceSet>
	</Shape>
	<Shape>
		<Appearance>
			<Material
				diffuseColor="1 1 1"
				transparency="0.699999988079071" />
		</Appearance>
		<IndexedFaceSet
			coordIndex="0 3 2 1 -1 4 7 3 0 -1 7 6 2 3 -1 6 5 1 2 -1 5 4 0 1 -1 4 5 6 7 -1"
			solid="false">
			<Coordinate
				point="497.5 -1000 -215 502.5 -1000 -215 502.5 1000 -215 497.5 1000 -215 497.5 -1000 -165 502.5 -1000 -165 502.5 1000 -165 497.5 1000 -165" />
		</IndexedFaceSet>
	</Shape>
	<Shape>
		<Appearance>
			<Material
				diffuseColor="1 1 1"
				transparency="0.699999988079071" />
		</Appearance>
		<IndexedFaceSet
			coordIndex="0 3 2 1 -1 4 7 3 0 -1 7 6 2 3 -1 6 5 1 2 -1 5 4 0 1 -1 4 5 6 7 -1"
			solid="false">
			<Coordinate
				point="497.5 -1000 -164 502.5 -1000 -164 502.5 1000 -164 497.5 1000 -164 497.5 -1000 -114 502.5 -1000 -114 502.5 1000 -114 497.5 1000 -114" />
		</IndexedFaceSet>
	</Shape>
	<Shape>
		<Appearance>
			<Material
				diffuseColor="1 1 1"
				transparency="0.699999988079071" />
		</Appearance>
		<IndexedFaceSet
			coordIndex="0 3 2 1 -1 4 7 3 0 -1 7 6 2 3 -1 6 5 1 2 -1 5 4 0 1 -1 4 5 6 7 -1"
			solid="false">
			<Coordinate
				point="497.5 -1000 -113 502.5 -1000 -113 502.5 1000 -113 497.5 1000 -113 497.5 -1000 -63 502.5 -1000 -63 502.5 1000 -63 497.5 1000 -63" />
		</IndexedFaceSet>
	</Shape>
	<Shape>
		<Appearance>
			<Material
				diffuseColor="1 1 1"
				transparency="0.699999988079071" />
		</Appearance>
		<IndexedFaceSet
			coordIndex="0 3 2 1 -1 4 7 3 0 -1 7 6 2 3 -1 6 5 1 2 -1 5 4 0 1 -1 4 5 6 7 -1"
			solid="false">
			<Coordinate
				point="497.5 -1000 -62 502.5 -1000 -62 502.5 1000 -62 497.5 1000 -62 497.5 -1000 -12 502.5 -1000 -12 502.5 1000 -12 497.5 1000 -12" />
		</IndexedFaceSet>
	</Shape>
	<Shape>
		<Appearance>
			<Material
				diffuseColor="1 1 1"
				transparency="0.699999988079071" />
		</Appearance>
		<IndexedFaceSet
			coordIndex="0 3 2 1 -1 4 7 3 0 -1 7 6 2 3 -1 6 5 1 2 -1 5 4 0 1 -1 4 5 6 7 -1"
			solid="false">
			<Coordinate
				point="497.5 -1000 -929 502.5 -1000 -929 502.5 1000 -929 497.5 1000 -929 497.5 -1000 -879 502.5 -1000 -879 502.5 1000 -879 497.5 1000 -879" />
		</IndexedFaceSet>
	</Shape>
	<Shape>
		<Appearance>
			<Material
				diffuseColor="1 1 1"
				transparency="0.699999988079071" />
		</Appearance>
		<IndexedFaceSet
			coordIndex="0 3 2 1 -1 4 7 3 0 -1 7 6 2 3 -1 6 5 1 2 -1 5 4 0 1 -1 4 5 6 7 -1"
			solid="false">
			<Coordinate
				point="497.5 -1000 -11 502.5 -1000 -11 502.5 1000 -11 497.5 1000 -11 497.5 -1000 39 502.5 -1000 39 502.5 1000 39 497.5 1000 39" />
		</IndexedFaceSet>
	</Shape>
	<Shape>
		<Appearance>
			<Material
				diffuseColor="1 1 1"
				transparency="0.699999988079071" />
		</Appearance>
		<IndexedFaceSet
			coordIndex="0 3 2 1 -1 4 7 3 0 -1 7 6 2 3 -1 6 5 1 2 -1 5 4 0 1 -1 4 5 6 7 -1"
			solid="false">
			<Coordinate
				point="497.5 -1000 40 502.5 -1000 40 502.5 1000 40 497.5 1000 40 497.5 -1000 90 502.5 -1000 90 502.5 1000 90 497.5 1000 90" />
		</IndexedFaceSet>
	</Shape>
	<Shape>
		<Appearance>
			<Material
				diffuseColor="1 1 1"
				transparency="0.699999988079071" />
		</Appearance>
		<IndexedFaceSet
			coordIndex="0 3 2 1 -1 4 7 3 0 -1 7 6 2 3 -1 6 5 1 2 -1 5 4 0 1 -1 4 5 6 7 -1"
			solid="false">
			<Coordinate
				point="497.5 -1000 91 502.5 -1000 91 502.5 1000 91 497.5 1000 91 497.5 -1000 141 502.5 -1000 141 502.5 1000 141 497.5 1000 141" />
		</IndexedFaceSet>
	</Shape>
	<Shape>
		<Appearance>
			<Material
				diffuseColor="1 1 1"
				transparency="0.699999988079071" />
		</Appearance>
		<IndexedFaceSet
			coordIndex="0 3 2 1 -1 4 7 3 0 -1 7 6 2 3 -1 6 5 1 2 -1 5 4 0 1 -1 4 5 6 7 -1"
			solid="false">
			<Coordinate
				point="497.5 -1000 142 502.5 -1000 142 502.5 1000 142 497.5 1000 142 497.5 -1000 192 502.5 -1000 192 502.5 1000 192 497.5 1000 192" />
		</IndexedFaceSet>
	</Shape>
	<Shape>
		<Appearance>
			<Material
				diffuseColor="1 1 1"
				transparency="0.699999988079071" />
		</Appearance>
		<IndexedFaceSet
			coordIndex="0 3 2 1 -1 4 7 3 0 -1 7 6 2 3 -1 6 5 1 2 -1 5 4 0 1 -1 4 5 6 7 -1"
			solid="false">
			<Coordinate
				point="497.5 -1000 193 502.5 -1000 193 502.5 1000 193 497.5 1000 193 497.5 -1000 243 502.5 -1000 243 502.5 1000 243 497.5 1000 243" />
		</IndexedFaceSet>
	</Shape>
	<Shape>
		<Appearance>
			<Material
				diffuseColor="1 1 1"
				transparency="0.699999988079071" />
		</Appearance>
		<IndexedFaceSet
			coordIndex="0 3 2 1 -1 4 7 3 0 -1 7 6 2 3 -1 6 5 1 2 -1 5 4 0 1 -1 4 5 6 7 -1"
			solid="false">
			<Coordinate
				point="497.5 -1000 244 502.5 -1000 244 502.5 1000 244 497.5 1000 244 497.5 -1000 294 502.5 -1000 294 502.5 1000 294 497.5 1000 294" />
		</IndexedFaceSet>
	</Shape>
	<Shape>
		<Appearance>
			<Material
				diffuseColor="1 1 1"
				transparency="0.699999988079071" />
		</Appearance>
		<IndexedFaceSet
			coordIndex="0 3 2 1 -1 4 7 3 0 -1 7 6 2 3 -1 6 5 1 2 -1 5 4 0 1 -1 4 5 6 7 -1"
			solid="false">
			<Coordinate
				point="497.5 -1000 295 502.5 -1000 295 502.5 1000 295 497.5 1000 295 497.5 -1000 345 502.5 -1000 345 502.5 1000 345 497.5 1000 345" />
		</IndexedFaceSet>
	</Shape>
	<Shape>
		<Appearance>
			<Material
				diffuseColor="1 1 1"
				transparency="0.699999988079071" />
		</Appearance>
		<IndexedFaceSet
			coordIndex="0 3 2 1 -1 4 7 3 0 -1 7 6 2 3 -1 6 5 1 2 -1 5 4 0 1 -1 4 5 6 7 -1"
			solid="false">
			<Coordinate
				point="497.5 -1000 346 502.5 -1000 346 502.5 1000 346 497.5 1000 346 497.5 -1000 396 502.5 -1000 396 502.5 1000 396 497.5 1000 396" />
		</IndexedFaceSet>
	</Shape>
	<Shape>
		<Appearance>
			<Material
				diffuseColor="1 1 1"
				transparency="0.699999988079071" />
		</Appearance>
		<IndexedFaceSet
			coordIndex="0 3 2 1 -1 4 7 3 0 -1 7 6 2 3 -1 6 5 1 2 -1 5 4 0 1 -1 4 5 6 7 -1"
			solid="false">
			<Coordinate
				point="497.5 -1000 397 502.5 -1000 397 502.5 1000 397 497.5 1000 397 497.5 -1000 447 502.5 -1000 447 502.5 1000 447 497.5 1000 447" />
		</IndexedFaceSet>
	</Shape>
	<Shape>
		<Appearance>
			<Material
				diffuseColor="1 1 1"
				transparency="0.699999988079071" />
		</Appearance>
		<IndexedFaceSet
			coordIndex="0 3 2 1 -1 4 7 3 0 -1 7 6 2 3 -1 6 5 1 2 -1 5 4 0 1 -1 4 5 6 7 -1"
			solid="false">
			<Coordinate
				point="497.5 -1000 448 502.5 -1000 448 502.5 1000 448 497.5 1000 448 497.5 -1000 498 502.5 -1000 498 502.5 1000 498 497.5 1000 498" />
		</IndexedFaceSet>
	</Shape>
	<Shape>
		<Appearance>
			<Material
				diffuseColor="1 1 1"
				transparency="0.699999988079071" />
		</Appearance>
		<IndexedFaceSet
			coordIndex="0 3 2 1 -1 4 7 3 0 -1 7 6 2 3 -1 6 5 1 2 -1 5 4 0 1 -1 4 5 6 7 -1"
			solid="false">
			<Coordinate
				point="497.5 -1000 -878 502.5 -1000 -878 502.5 1000 -878 497.5 1000 -878 497.5 -1000 -828 502.5 -1000 -828 502.5 1000 -828 497.5 1000 -828" />
		</IndexedFaceSet>
	</Shape>
	<Shape>
		<Appearance>
			<Material
				diffuseColor="1 1 1"
				transparency="0.699999988079071" />
		</Appearance>
		<IndexedFaceSet
			coordIndex="0 3 2 1 -1 4 7 3 0 -1 7 6 2 3 -1 6 5 1 2 -1 5 4 0 1 -1 4 5 6 7 -1"
			solid="false">
			<Coordinate
				point="497.5 -1000 499 502.5 -1000 499 502.5 1000 499 497.5 1000 499 497.5 -1000 549 502.5 -1000 549 502.5 1000 549 497.5 1000 549" />
		</IndexedFaceSet>
	</Shape>
	<Shape>
		<Appearance>
			<Material
				diffuseColor="1 1 1"
				transparency="0.699999988079071" />
		</Appearance>
		<IndexedFaceSet
			coordIndex="0 3 2 1 -1 4 7 3 0 -1 7 6 2 3 -1 6 5 1 2 -1 5 4 0 1 -1 4 5 6 7 -1"
			solid="false">
			<Coordinate
				point="497.5 -1000 550 502.5 -1000 550 502.5 1000 550 497.5 1000 550 497.5 -1000 600 502.5 -1000 600 502.5 1000 600 497.5 1000 600" />
		</IndexedFaceSet>
	</Shape>
	<Shape>
		<Appearance>
			<Material
				diffuseColor="1 1 1"
				transparency="0.699999988079071" />
		</Appearance>
		<IndexedFaceSet
			coordIndex="0 3 2 1 -1 4 7 3 0 -1 7 6 2 3 -1 6 5 1 2 -1 5 4 0 1 -1 4 5 6 7 -1"
			solid="false">
			<Coordinate
				point="497.5 -1000 601 502.5 -1000 601 502.5 1000 601 497.5 1000 601 497.5 -1000 651 502.5 -1000 651 502.5 1000 651 497.5 1000 651" />
		</IndexedFaceSet>
	</Shape>
	<Shape>
		<Appearance>
			<Material
				diffuseColor="1 1 1"
				transparency="0.699999988079071" />
		</Appearance>
		<IndexedFaceSet
			coordIndex="0 3 2 1 -1 4 7 3 0 -1 7 6 2 3 -1 6 5 1 2 -1 5 4 0 1 -1 4 5 6 7 -1"
			solid="false">
			<Coordinate
				point="497.5 -1000 652 502.5 -1000 652 502.5 1000 652 497.5 1000 652 497.5 -1000 702 502.5 -1000 702 502.5 1000 702 497.5 1000 702" />
		</IndexedFaceSet>
	</Shape>
	<Shape>
		<Appearance>
			<Material
				diffuseColor="1 1 1"
				transparency="0.699999988079071" />
		</Appearance>
		<IndexedFaceSet
			coordIndex="0 3 2 1 -1 4 7 3 0 -1 7 6 2 3 -1 6 5 1 2 -1 5 4 0 1 -1 4 5 6 7 -1"
			solid="false">
			<Coordinate
				point="497.5 -1000 703 502.5 -1000 703 502.5 1000 703 497.5 1000 703 497.5 -1000 753 502.5 -1000 753 502.5 1000 753 497.5 1000 753" />
		</IndexedFaceSet>
	</Shape>
	<Shape>
		<Appearance>
			<Material
				diffuseColor="1 1 1"
				transparency="0.699999988079071" />
		</Appearance>
		<IndexedFaceSet
			coordIndex="0 3 2 1 -1 4 7 3 0 -1 7 6 2 3 -1 6 5 1 2 -1 5 4 0 1 -1 4 5 6 7 -1"
			solid="false">
			<Coordinate
				point="497.5 -1000 754 502.5 -1000 754 502.5 1000 754 497.5 1000 754 497.5 -1000 804 502.5 -1000 804 502.5 1000 804 497.5 1000 804" />
		</IndexedFaceSet>
	</Shape>
	<Shape>
		<Appearance>
			<Material
				diffuseColor="1 1 1"
				transparency="0.699999988079071" />
		</Appearance>
		<IndexedFaceSet
			coordIndex="0 3 2 1 -1 4 7 3 0 -1 7 6 2 3 -1 6 5 1 2 -1 5 4 0 1 -1 4 5 6 7 -1"
			solid="false">
			<Coordinate
				point="497.5 -1000 805 502.5 -1000 805 502.5 1000 805 497.5 1000 805 497.5 -1000 855 502.5 -1000 855 502.5 1000 855 497.5 1000 855" />
		</IndexedFaceSet>
	</Shape>
	<Shape>
		<Appearance>
			<Material
				diffuseColor="1 1 1"
				transparency="0.699999988079071" />
		</Appearance>
		<IndexedFaceSet
			coordIndex="0 3 2 1 -1 4 7 3 0 -1 7 6 2 3 -1 6 5 1 2 -1 5 4 0 1 -1 4 5 6 7 -1"
			solid="false">
			<Coordinate
				point="497.5 -1000 856 502.5 -1000 856 502.5 1000 856 497.5 1000 856 497.5 -1000 906 502.5 -1000 906 502.5 1000 906 497.5 1000 906" />
		</IndexedFaceSet>
	</Shape>
	<Shape>
		<Appearance>
			<Material
				diffuseColor="1 1 1"
				transparency="0.699999988079071" />
		</Appearance>
		<IndexedFaceSet
			coordIndex="0 3 2 1 -1 4 7 3 0 -1 7 6 2 3 -1 6 5 1 2 -1 5 4 0 1 -1 4 5 6 7 -1"
			solid="false">
			<Coordinate
				point="497.5 -1000 907 502.5 -1000 907 502.5 1000 907 497.5 1000 907 497.5 -1000 957 502.5 -1000 957 502.5 1000 957 497.5 1000 957" />
		</IndexedFaceSet>
	</Shape>
	<Shape>
		<Appearance>
			<Material
				diffuseColor="1 1 1"
				transparency="0.699999988079071" />
		</Appearance>
		<IndexedFaceSet
			coordIndex="0 3 2 1 -1 4 7 3 0 -1 7 6 2 3 -1 6 5 1 2 -1 5 4 0 1 -1 4 5 6 7 -1"
			solid="false">
			<Coordinate
				point="497.5 -1000 958 502.5 -1000 958 502.5 1000 958 497.5 1000 958 497.5 -1000 1008 502.5 -1000 1008 502.5 1000 1008 497.5 1000 1008" />
		</IndexedFaceSet>
	</Shape>
	<Shape>
		<Appearance>
			<Material
				diffuseColor="1 1 1"
				transparency="0.699999988079071" />
		</Appearance>
		<IndexedFaceSet
			coordIndex="0 3 2 1 -1 4 7 3 0 -1 7 6 2 3 -1 6 5 1 2 -1 5 4 0 1 -1 4 5 6 7 -1"
			solid="false">
			<Coordinate
				point="497.5 -1000 -827 502.5 -1000 -827 502.5 1000 -827 497.5 1000 -827 497.5 -1000 -777 502.5 -1000 -777 502.5 1000 -777 497.5 1000 -777" />
		</IndexedFaceSet>
	</Shape>
	<Shape>
		<Appearance>
			<Material
				diffuseColor="1 1 1"
				transparency="0.699999988079071" />
		</Appearance>
		<IndexedFaceSet
			coordIndex="0 3 2 1 -1 4 7 3 0 -1 7 6 2 3 -1 6 5 1 2 -1 5 4 0 1 -1 4 5 6 7 -1"
			solid="false">
			<Coordinate
				point="497.5 -1000 1009 502.5 -1000 1009 502.5 1000 1009 497.5 1000 1009 497.5 -1000 1059 502.5 -1000 1059 502.5 1000 1059 497.5 1000 1059" />
		</IndexedFaceSet>
	</Shape>
	<Shape>
		<Appearance>
			<Material
				diffuseColor="1 1 1"
				transparency="0.699999988079071" />
		</Appearance>
		<IndexedFaceSet
			coordIndex="0 3 2 1 -1 4 7 3 0 -1 7 6 2 3 -1 6 5 1 2 -1 5 4 0 1 -1 4 5 6 7 -1"
			solid="false">
			<Coordinate
				point="497.5 -1000 -776 502.5 -1000 -776 502.5 1000 -776 497.5 1000 -776 497.5 -1000 -726 502.5 -1000 -726 502.5 1000 -726 497.5 1000 -726" />
		</IndexedFaceSet>
	</Shape>
	<Shape>
		<Appearance>
			<Material
				diffuseColor="1 1 1"
				transparency="0.699999988079071" />
		</Appearance>
		<IndexedFaceSet
			coordIndex="0 3 2 1 -1 4 7 3 0 -1 7 6 2 3 -1 6 5 1 2 -1 5 4 0 1 -1 4 5 6 7 -1"
			solid="false">
			<Coordinate
				point="497.5 -1000 -725 502.5 -1000 -725 502.5 1000 -725 497.5 1000 -725 497.5 -1000 -675 502.5 -1000 -675 502.5 1000 -675 497.5 1000 -675" />
		</IndexedFaceSet>
	</Shape>
	<Shape>
		<Appearance>
			<Material
				diffuseColor="1 1 1"
				transparency="0.699999988079071" />
		</Appearance>
		<IndexedFaceSet
			coordIndex="0 3 2 1 -1 4 7 3 0 -1 7 6 2 3 -1 6 5 1 2 -1 5 4 0 1 -1 4 5 6 7 -1"
			solid="false">
			<Coordinate
				point="497.5 -1000 -674 502.5 -1000 -674 502.5 1000 -674 497.5 1000 -674 497.5 -1000 -624 502.5 -1000 -624 502.5 1000 -624 497.5 1000 -624" />
		</IndexedFaceSet>
	</Shape>
	<Shape>
		<Appearance>
			<Material
				diffuseColor="1 1 1"
				transparency="0.699999988079071" />
		</Appearance>
		<IndexedFaceSet
			coordIndex="0 3 2 1 -1 4 7 3 0 -1 7 6 2 3 -1 6 5 1 2 -1 5 4 0 1 -1 4 5 6 7 -1"
			solid="false">
			<Coordinate
				point="497.5 -1000 -623 502.5 -1000 -623 502.5 1000 -623 497.5 1000 -623 497.5 -1000 -573 502.5 -1000 -573 502.5 1000 -573 497.5 1000 -573" />
		</IndexedFaceSet>
	</Shape>
	<Shape>
		<Appearance>
			<Material
				diffuseColor="1 1 1"
				transparency="0.699999988079071" />
		</Appearance>
		<IndexedFaceSet
			coordIndex="0 3 2 1 -1 4 7 3 0 -1 7 6 2 3 -1 6 5 1 2 -1 5 4 0 1 -1 4 5 6 7 -1"
			solid="false">
			<Coordinate
				point="497.5 -1000 -572 502.5 -1000 -572 502.5 1000 -572 497.5 1000 -572 497.5 -1000 -522 502.5 -1000 -522 502.5 1000 -522 497.5 1000 -522" />
		</IndexedFaceSet>
	</Shape>
</Scene>
</X3D>
